<?xml version="1.0" encoding="utf-8"?>
<!-- Generator: Adobe Illustrator 24.0.2, SVG Export Plug-In . SVG Version: 6.00 Build 0)  -->
<svg version="1.1" id="Layer_1" xmlns="http://www.w3.org/2000/svg" xmlns:xlink="http://www.w3.org/1999/xlink" x="0px" y="0px"
	 viewBox="0 0 317.4 406.6" style="enable-background:new 0 0 317.4 406.6;" xml:space="preserve">
<style type="text/css">
	.st0{fill:#D2B074;}
	.st1{fill:#D4B06C;}
	.st2{fill:#FFFFFF;}
	.st3{enable-background:new    ;}
</style>
<title>W</title>
<g id="Layer_2_1_">
	<g id="Logo_3">
		<g id="W">
			<path class="st0" d="M130.1,251.2c-18.7-7.4-34.5-12.3-63.5,8.1V148l10.5-10.5v100.8C77.1,238.3,109,220,130.1,251.2z"/>
			<path class="st0" d="M153.3,269.3c-0.4,0.2-0.9,0.2-1.3,0c-7.3-4.5-18.4-14.6-26.8-36.4c-15.3-9-33.3-4.6-39.4-4.6h-1.4V58.5
				c0.8,0.4,1.6,0.8,2.4,1.2c4.5,2.9,8.7,6.2,12.4,10.1c11.6,12,18.5,26.4,21.3,43c1,6,1.4,12.2,2.1,18.2c0.8,7.1,1.6,14.2,2.4,21.3
				c0.4,3.7,0.8,7.4,1.1,11.1c0,0.3,0,0.6,0,0.9c-1.4,0-2.9,0.1-4.3,0.4c-5,1.1-8.8,5.2-9.6,10.2c-0.5,3.2,0.6,6.4,3,8.5
				c1.7,1.4,3.4,2.8,5.2,4c-0.9,3.7-1.8,7.5-2.8,11.4c-0.3-0.1-0.8-0.2-1.2-0.4c-9.5-3.7-15-10.8-15.7-21.4
				c-0.5-7.9,2.8-14.1,8.5-19.1c0.8-0.7,1.7-1.3,2.6-1.9c1.3-0.6,2-2.1,1.7-3.5c-0.5-4.1-1-8.3-1.5-12.5c-0.7-6.3-1.3-12.7-2-19
				c-1.2-12-5.2-23.6-11.8-33.7c-0.8-1.2-1.5-2.4-2.5-3.9v133.9h46.3v10.8h-7.6c0.3,6,6.8,18.8,12.1,23.6c0-0.3,0.1-0.6,0.1-0.8
				c0-11.7,0-23.4,0-35.1c-0.1-1.6-0.7-3.1-1.7-4.3c-1.6-2.1-3.8-3.7-6.3-4.5c-0.6-0.2-1.1-0.4-1.9-0.7l1.7-10.9
				c5.7,1.4,9.7,5.3,14,8.7"/>
			<path class="st0" d="M158.8,159.3c-5,3.7-9.3,8.2-12.7,13.3c-6,8.9-9.8,19.1-11,29.7c-0.6,4.4-1,8.7-1.5,13.2h-14.8
				c-0.1-0.3-0.1-0.7-0.1-1c0.1-20.4,6.5-38.6,19.8-54.3c1.3-1.7,2.4-3.5,3.2-5.5c4.1-9.4,6.1-19.4,7.1-29.6
				c1.1-11.6,0.6-23.2,0.1-34.8c-0.4-10.9-0.8-21.8-1.1-32.8c-0.3-9-0.6-18.1-0.8-27.1c-0.3-10.3,2.5-19.6,9-27.7
				c0.6-0.7,1.3-1.4,2-2.1c0.3-0.3,0.6-0.5,0.9-0.8"/>
			<path class="st1" d="M129,250.6c0,0-25-7.4-56.2,24.4c-0.1-2.3,0.5-8.6,0.5-8.6S95.1,245.1,129,250.6z"/>
			<path class="st1" d="M70,267.5v-7.8c16.6-12.9,38.6-16.4,58.3-9.2C123.7,248.3,92.1,244.6,70,267.5z"/>
			<path class="st2" d="M187.3,251.2c18.7-7.4,34.5-12.3,63.5,8.1V148l-10.5-10.5v100.8C240.3,238.3,208.5,220,187.3,251.2z"/>
			<path class="st2" d="M164.2,269.3c0.4,0.2,0.9,0.2,1.3,0c7.3-4.5,18.4-14.6,26.8-36.4c15.3-9,33.3-4.6,39.4-4.6h1.4V58.5
				c-0.9,0.5-1.7,0.8-2.4,1.2c-4.5,2.9-8.7,6.2-12.4,10.1c-11.6,12-18.6,26.4-21.3,43c-1,6-1.4,12.2-2.1,18.2
				c-0.8,7.1-1.6,14.2-2.4,21.3c-0.4,3.7-0.8,7.4-1.1,11.1c0,0.3,0,0.6,0,0.9c1.4,0,2.9,0.1,4.3,0.4c5,1.1,8.8,5.2,9.6,10.2
				c0.5,3.2-0.6,6.4-3,8.5c-1.7,1.4-3.4,2.8-5.2,4c0.9,3.7,1.8,7.5,2.8,11.4c0.3-0.1,0.8-0.2,1.2-0.4c9.5-3.7,15-10.8,15.7-21.4
				c0.5-7.9-2.8-14.1-8.5-19.1c-0.8-0.7-1.7-1.3-2.6-1.9c-1.3-0.6-2-2.1-1.7-3.5c0.5-4.1,1-8.3,1.5-12.5c0.7-6.3,1.3-12.7,2-19
				c1.2-12,5.2-23.5,11.8-33.7l2.5-3.9v133.8h-46.3v10.8h7.6c-0.3,6-6.8,18.8-12.1,23.6c0-0.3-0.1-0.6-0.1-0.8c0-11.7,0-23.4,0-35.1
				c0.1-1.6,0.7-3.1,1.7-4.3c1.6-2.1,3.8-3.7,6.3-4.5c0.6-0.2,1.1-0.4,1.9-0.7l-1.7-10.9c-5.7,1.4-9.7,5.3-14,8.7"/>
			<path class="st2" d="M158.6,159.3c5,3.7,9.3,8.2,12.7,13.3c6,8.9,9.7,19.1,10.9,29.7c0.6,4.4,1,8.7,1.5,13.2h14.9
				c0-0.3,0.1-0.6,0.1-1c-0.1-20.4-6.5-38.6-19.8-54.3c-1.3-1.7-2.4-3.5-3.2-5.5c-4.1-9.4-6.1-19.4-7.1-29.6
				c-1.1-11.6-0.6-23.2-0.1-34.8c0.4-10.9,0.8-21.8,1.1-32.8c0.3-9,0.6-18.1,0.9-27.1c0.2-10.3-2.5-19.6-9-27.7
				c-0.6-0.7-1.3-1.4-2-2.1c-0.3-0.3-0.6-0.5-0.9-0.8"/>
			<path class="st2" d="M188.3,250.1c0,0,24.9-7.4,56.1,24.4c0.1-2.3-0.5-8.6-0.5-8.6S222.3,244.6,188.3,250.1z"/>
			<path class="st2" d="M247.4,267v-7.8c-16.6-12.9-38.6-16.4-58.4-9.2C193.6,247.8,225.2,244.1,247.4,267z"/>
			<g class="st3">
				<path class="st1" d="M29.7,369.3h-7.6v-67.2l-6.7-6.7H12v73.9H4.3v-73.9H1.1v-7.6h17.4l7.4,7.4l7.4-7.4h14.1v73.9h3.3v7.6H39.8
					v-73.9h-3.4l-6.7,6.7V369.3z"/>
			</g>
			<g class="st3">
				<path class="st1" d="M71.8,326.8H61.5v42.5h-7.6v-70.1l11.4-11.4h14.1v73.9h3.3v7.6H71.8V326.8z M71.8,295.4h-3.5l-6.8,6.8v17
					h10.3V295.4z"/>
				<path class="st1" d="M133.8,369.3H105v-45.6l-9.2,9.2v28.8H99v7.6H84.9v-7.6h3.3v-66.3h-3.3v-7.6h10.9v35l9.2-9.2v-18.1h-3.3
					v-7.6h28.8v73.9h3.3V369.3z M112.6,361.7h10.3v-66.3h-10.3V361.7z"/>
			</g>
			<g class="st3">
				<path class="st2" d="M162.6,369.3H155v-73.9h-3.3v-7.6h28.8v73.9h3.3v7.6h-10.9v-73.9h-10.3V369.3z"/>
				<path class="st2" d="M212.6,287.8v39h-17.9v34.9h3.3v7.6H187v-73.9h-3.3v-7.6H212.6z M194.6,319.2H205v-23.8h-10.3V319.2z"/>
			</g>
			<g class="st3">
				<path class="st2" d="M237,326.8h-10.3v42.5h-7.6v-70.1l11.4-11.4h14.1v73.9h3.3v7.6H237V326.8z M237,295.4h-3.5l-6.8,6.8v17H237
					V295.4z"/>
				<path class="st2" d="M250.1,287.8h28.8v27.8l-7.4,7.4l7.4,7.4v31.3h3.3v7.6h-28.8v-73.9h-3.3V287.8z M260.9,322.8l10.3-10.3
					v-17.1h-10.3V322.8z M260.9,333.5v28.1h10.3v-28.1l-5.2-5.1L260.9,333.5z"/>
				<path class="st2" d="M284.3,287.8h28.8v73.9h3.3v7.6h-28.8v-73.9h-3.3V287.8z M295.1,361.7h10.3v-66.3h-10.3V361.7z"/>
			</g>
			<g class="st3">
				<path class="st1" d="M11.1,387.3c-0.4-0.1-0.8-0.2-1.2-0.2c-0.4,0-0.8-0.1-1.2-0.1c-0.8,0-1.5,0.2-2.1,0.5s-1.1,0.7-1.5,1.3
					c-0.4,0.6-0.7,1.2-0.8,2c-0.2,0.8-0.3,1.7-0.3,2.6c0,0.9,0.1,1.7,0.2,2.4c0.1,0.7,0.4,1.4,0.8,1.9c0.4,0.5,0.9,1,1.5,1.3
					c0.6,0.3,1.4,0.5,2.4,0.5c0.2,0,0.4,0,0.7,0c0.3,0,0.6,0,0.9-0.1c0.3,0,0.7-0.1,1-0.2c0.3-0.1,0.7-0.1,0.9-0.2l0.4,1.4
					c-0.3,0.1-0.6,0.2-0.9,0.3c-0.3,0.1-0.7,0.2-1.1,0.2c-0.4,0.1-0.8,0.1-1.2,0.1C9.3,401,9,401,8.6,401c-1.2,0-2.2-0.2-3-0.5
					c-0.8-0.4-1.5-0.9-2-1.6c-0.5-0.7-0.9-1.5-1.1-2.4c-0.2-0.9-0.3-2-0.3-3.1c0-0.5,0-1.1,0.1-1.7c0.1-0.6,0.2-1.2,0.4-1.8
					c0.2-0.6,0.5-1.1,0.8-1.7c0.3-0.5,0.7-1,1.2-1.4c0.5-0.4,1.1-0.7,1.7-1c0.7-0.2,1.5-0.4,2.3-0.4c0.8,0,1.6,0.1,2.2,0.2
					c0.6,0.1,1.2,0.3,1.6,0.4v3.5h-1.4V387.3z"/>
			</g>
			<g class="st3">
				<path class="st1" d="M18.1,385.8v1.4h-1.4l1.9,5l1.4,3.8h0.1l1.3-3.8l1.8-5h-1.4v-1.4h4.3v1.4h-1.1l-4.4,11.6
					c-0.3,0.8-0.7,1.4-1.1,1.7s-1,0.5-1.7,0.5c-0.2,0-0.5,0-0.9,0c-0.4,0-0.9-0.1-1.6-0.3l0.3-1.3c0.4,0.1,0.7,0.1,1,0.2
					c0.3,0.1,0.6,0.1,0.8,0.1c0.4,0,0.7-0.1,0.9-0.3c0.2-0.2,0.5-0.6,0.7-1.1l0.4-1h-0.7l-4-10h-1.2v-1.4H18.1z"/>
			</g>
			<g class="st3">
				<path class="st1" d="M35.7,387.3c-0.4-0.1-0.8-0.2-1.2-0.2c-0.4,0-0.8-0.1-1.2-0.1c-0.8,0-1.5,0.2-2.1,0.5s-1.1,0.7-1.5,1.3
					c-0.4,0.6-0.7,1.2-0.8,2c-0.2,0.8-0.3,1.7-0.3,2.6c0,0.9,0.1,1.7,0.2,2.4c0.1,0.7,0.4,1.4,0.8,1.9c0.4,0.5,0.9,1,1.5,1.3
					c0.6,0.3,1.4,0.5,2.4,0.5c0.2,0,0.4,0,0.7,0c0.3,0,0.6,0,0.9-0.1c0.3,0,0.7-0.1,1-0.2c0.3-0.1,0.7-0.1,0.9-0.2l0.4,1.4
					c-0.3,0.1-0.6,0.2-0.9,0.3c-0.3,0.1-0.7,0.2-1.1,0.2c-0.4,0.1-0.8,0.1-1.2,0.1c-0.4,0-0.8,0.1-1.1,0.1c-1.2,0-2.2-0.2-3-0.5
					c-0.8-0.4-1.5-0.9-2-1.6c-0.5-0.7-0.9-1.5-1.1-2.4c-0.2-0.9-0.3-2-0.3-3.1c0-0.5,0-1.1,0.1-1.7c0.1-0.6,0.2-1.2,0.4-1.8
					c0.2-0.6,0.5-1.1,0.8-1.7c0.3-0.5,0.7-1,1.2-1.4c0.5-0.4,1.1-0.7,1.7-1c0.7-0.2,1.5-0.4,2.3-0.4c0.8,0,1.6,0.1,2.2,0.2
					c0.6,0.1,1.2,0.3,1.6,0.4v3.5h-1.4V387.3z"/>
				<path class="st1" d="M48,400.8v-1.4h1.4v-12.3h-7v12.3h1.4v1.4H39v-1.4h1.4v-12.3H39v-1.4h13.7v1.4h-1.4v12.3h1.4v1.4H48z"/>
				<path class="st1" d="M55.1,400.8v-1.4h1.4v-12.3h-1.4v-1.4h4.7v1.4h-1.4v12.3h1.4v1.4H55.1z"/>
				<path class="st1" d="M70.6,400.8v-1.4H72v-12.3h-4.8v1.4c0,1.6,0,3.2-0.1,4.6c-0.1,1.4-0.3,2.7-0.7,3.8c-0.3,1.1-0.9,2-1.5,2.8
					c-0.7,0.7-1.6,1.2-2.8,1.4l-0.4-1.4c0.8-0.3,1.5-0.7,2-1.3c0.5-0.6,0.9-1.3,1.1-2.2c0.3-0.9,0.4-2,0.5-3.2s0.1-2.6,0.1-4.2v-1.7
					h-1.9v-1.4h11.8v1.3h-1.4v12.4h1.4v1.4H70.6z"/>
				<path class="st1" d="M82.3,387.1h-1.6v4.8h3.5c0.8,0,1.5,0.1,2.2,0.4c0.6,0.2,1.1,0.6,1.5,1s0.7,0.9,0.9,1.4
					c0.2,0.5,0.3,1.1,0.3,1.7c0,0.8-0.1,1.4-0.4,1.9c-0.2,0.5-0.6,1-1,1.4c-0.4,0.4-0.9,0.6-1.5,0.8c-0.6,0.2-1.2,0.3-1.8,0.3h-7.3
					v-1.4h1.5v-12.3h-1.5v-1.4h4.9V387.1z M80.8,393.3v6.1h3.6c0.4,0,0.8-0.1,1.2-0.2c0.4-0.1,0.7-0.3,0.9-0.6s0.5-0.6,0.6-1
					c0.2-0.4,0.2-0.8,0.2-1.3c0-0.5-0.1-1-0.3-1.4c-0.2-0.4-0.4-0.7-0.7-1c-0.3-0.3-0.7-0.4-1-0.6c-0.4-0.1-0.8-0.2-1.2-0.2H80.8z"
					/>
				<path class="st1" d="M100,400.8v-1.4h1.4v-5.9h-7.1v5.9h1.4v1.4H91v-1.4h1.4v-12.3H91v-1.4h4.7v1.4h-1.4v5.1h7.1v-5.1H100v-1.4
					h4.7v1.4h-1.4v12.3h1.4v1.4H100z"/>
				<path class="st1" d="M119.4,393.4c0,1.1-0.1,2.1-0.4,3c-0.3,0.9-0.7,1.7-1.2,2.4c-0.5,0.7-1.2,1.2-2,1.6
					c-0.8,0.4-1.7,0.6-2.7,0.6c-1.2,0-2.2-0.2-3-0.5s-1.5-0.9-2-1.5c-0.5-0.7-0.9-1.5-1.1-2.4c-0.2-0.9-0.4-2-0.4-3.1
					c0-1,0.1-2,0.3-3c0.2-1,0.6-1.8,1.1-2.5c0.5-0.7,1.2-1.3,2-1.7c0.8-0.4,1.8-0.6,3-0.6c1.2,0,2.2,0.2,3,0.6s1.4,1,1.9,1.7
					s0.8,1.5,1,2.5C119.3,391.4,119.4,392.3,119.4,393.4z M117.4,393.4c0-0.7-0.1-1.5-0.2-2.3c-0.1-0.8-0.3-1.4-0.6-2
					s-0.7-1.1-1.3-1.5s-1.3-0.6-2.2-0.6c-0.9,0-1.7,0.2-2.2,0.5c-0.6,0.4-1,0.8-1.4,1.4s-0.6,1.3-0.7,2c-0.1,0.8-0.2,1.6-0.2,2.4
					c0,2,0.4,3.5,1.1,4.5c0.7,1,1.9,1.5,3.5,1.5c0.7,0,1.4-0.2,1.9-0.5s1-0.7,1.3-1.3c0.4-0.5,0.6-1.2,0.8-1.9
					C117.4,395.1,117.4,394.3,117.4,393.4z"/>
				<path class="st1" d="M136.3,400.8v-1.4h1.4v-12.3h-7v12.3h1.4v1.4h-4.7v-1.4h1.4v-12.3h-1.4v-1.4h13.7v1.4h-1.4v12.3h1.4v1.4
					H136.3z"/>
				<path class="st1" d="M155.8,393.4c0,1.1-0.1,2.1-0.4,3c-0.3,0.9-0.7,1.7-1.2,2.4c-0.5,0.7-1.2,1.2-2,1.6
					c-0.8,0.4-1.7,0.6-2.7,0.6c-1.2,0-2.2-0.2-3-0.5s-1.5-0.9-2-1.5c-0.5-0.7-0.9-1.5-1.1-2.4c-0.2-0.9-0.4-2-0.4-3.1
					c0-1,0.1-2,0.3-3c0.2-1,0.6-1.8,1.1-2.5c0.5-0.7,1.2-1.3,2-1.7c0.8-0.4,1.8-0.6,3-0.6c1.2,0,2.2,0.2,3,0.6s1.4,1,1.9,1.7
					s0.8,1.5,1,2.5C155.7,391.4,155.8,392.3,155.8,393.4z M153.8,393.4c0-0.7-0.1-1.5-0.2-2.3c-0.1-0.8-0.3-1.4-0.6-2
					s-0.7-1.1-1.3-1.5s-1.3-0.6-2.2-0.6c-0.9,0-1.7,0.2-2.2,0.5c-0.6,0.4-1,0.8-1.4,1.4s-0.6,1.3-0.7,2c-0.1,0.8-0.2,1.6-0.2,2.4
					c0,2,0.4,3.5,1.1,4.5c0.7,1,1.9,1.5,3.5,1.5c0.7,0,1.4-0.2,1.9-0.5s1-0.7,1.3-1.3c0.4-0.5,0.6-1.2,0.8-1.9
					C153.7,395.1,153.8,394.3,153.8,393.4z"/>
				<path class="st1" d="M166.1,400.8v-1.4h1.3v-12.3h-4.8v1.4c0,1.6,0,3.2-0.1,4.6c-0.1,1.4-0.3,2.7-0.7,3.8
					c-0.3,1.1-0.9,2-1.5,2.8c-0.7,0.7-1.6,1.2-2.8,1.4l-0.4-1.4c0.8-0.3,1.5-0.7,2-1.3c0.5-0.6,0.9-1.3,1.1-2.2
					c0.3-0.9,0.4-2,0.5-3.2c0.1-1.2,0.1-2.6,0.1-4.2v-1.7h-1.9v-1.4h11.8v1.3h-1.4v12.4h1.4v1.4H166.1z"/>
				<path class="st1" d="M173.4,400.8v-1.4h1.4v-12.3h-1.4v-1.4h4.7v1.4h-1.4v12.3h1.4v1.4H173.4z"/>
				<path class="st1" d="M183,400.8v-1.4h1.8v-12.3h-3.5v2.3h-1.4v-3.8h11.6v3.8h-1.4v-2.3h-3.4v12.3h1.8v1.4H183z"/>
				<path class="st1" d="M201.8,385.8h5.1v1.3h-1.5v12.3h1.5v1.4H202v-1.4h1.5v-9.7h0l-7.5,9v0.7h1.5v1.4h-4.8v-1.4h1.5v-12.3h-1.5
					v-1.3h4.8v1.3H196v9.7h0c1.3-1.5,2.5-3,3.8-4.5c1.2-1.5,2.5-3,3.8-4.5v-0.6h-1.8V385.8z"/>
				<path class="st1" d="M221.3,400.8h-4.7v-1.4h1.4v-5.3c-0.7,0.2-1.3,0.4-2,0.5s-1.3,0.2-1.9,0.2c-0.6,0-1.2-0.1-1.8-0.2
					c-0.5-0.1-1-0.3-1.4-0.6c-0.4-0.3-0.7-0.6-0.9-1.1c-0.2-0.4-0.3-1-0.3-1.6v-4.2h-1.4v-1.4h4.7v1.4h-1.4v3.7
					c0,0.9,0.3,1.6,0.8,1.9c0.5,0.4,1.2,0.5,2.1,0.5c0.6,0,1.2-0.1,1.8-0.2s1.2-0.3,1.7-0.5v-5.5h-1.4v-1.4h4.6v1.4h-1.5v12.3h1.5
					V400.8z"/>
				<path class="st1" d="M232.1,400.8v-1.4h1.4v-5.9h-7.1v5.9h1.4v1.4h-4.7v-1.4h1.4v-12.3h-1.4v-1.4h4.7v1.4h-1.4v5.1h7.1v-5.1
					h-1.4v-1.4h4.7v1.4h-1.4v12.3h1.4v1.4H232.1z"/>
				<path class="st1" d="M247.6,385.8h5.1v1.3h-1.5v12.3h1.5v1.4h-4.8v-1.4h1.5v-9.7h0l-7.5,9v0.7h1.5v1.4h-4.8v-1.4h1.5v-12.3h-1.5
					v-1.3h4.8v1.3h-1.5v9.7h0c1.3-1.5,2.5-3,3.8-4.5s2.5-3,3.8-4.5v-0.6h-1.8V385.8z"/>
				<path class="st1" d="M263.4,385.8h5.1v1.3H267v12.3h1.5v1.4h-4.8v-1.4h1.5v-9.7h0l-7.5,9v0.7h1.5v1.4h-4.8v-1.4h1.5v-12.3h-1.5
					v-1.3h4.8v1.3h-1.5v9.7h0c1.3-1.5,2.5-3,3.8-4.5s2.5-3,3.8-4.5v-0.6h-1.8V385.8z M261.4,383.9c-0.4,0-0.7-0.1-1.1-0.2
					c-0.3-0.1-0.7-0.3-0.9-0.6c-0.3-0.2-0.6-0.5-0.8-0.8c-0.3-0.3-0.5-0.6-0.7-0.9l1-0.7c0.4,0.6,0.8,1,1.3,1.3s0.9,0.5,1.3,0.5
					c0.1,0,0.3,0,0.5,0c0.2,0,0.4-0.1,0.7-0.2s0.5-0.3,0.9-0.5c0.3-0.2,0.7-0.5,1.1-0.9l0.6,0.5c-0.6,0.9-1.3,1.6-1.9,1.9
					C262.6,383.7,262,383.9,261.4,383.9z"/>
				<path class="st1" d="M287.2,390.1c0,0.5-0.1,0.9-0.2,1.5c-0.1,0.5-0.4,1-0.7,1.5s-0.8,0.8-1.4,1.1s-1.3,0.5-2.2,0.5h-3.3v4.8
					h1.9v1.4h-5.2v-1.4h1.4v-12.3h-1.4v-1.4h6.3c0.7,0,1.3,0.1,1.9,0.3c0.6,0.2,1.1,0.5,1.5,0.8c0.4,0.4,0.7,0.8,1,1.4
					S287.2,389.4,287.2,390.1z M279.5,387.2v6h2.9c0.4,0,0.7,0,1.1-0.1c0.4-0.1,0.7-0.3,0.9-0.5c0.3-0.2,0.5-0.5,0.7-0.9
					c0.2-0.4,0.3-0.9,0.3-1.5c0-1-0.3-1.8-0.8-2.3c-0.5-0.5-1.3-0.7-2.2-0.7H279.5z"/>
				<path class="st1" d="M292.5,385.8v1.4h-1.4l1.9,5l1.4,3.8h0.1l1.3-3.8l1.8-5h-1.4v-1.4h4.3v1.4h-1.1l-4.4,11.6
					c-0.3,0.8-0.7,1.4-1.1,1.7s-1,0.5-1.7,0.5c-0.2,0-0.5,0-0.9,0c-0.4,0-0.9-0.1-1.6-0.3l0.3-1.3c0.4,0.1,0.7,0.1,1,0.2
					c0.3,0.1,0.6,0.1,0.8,0.1c0.4,0,0.7-0.1,0.9-0.3c0.2-0.2,0.5-0.6,0.7-1.1l0.4-1h-0.7l-4-10H288v-1.4H292.5z"/>
				<path class="st1" d="M309.4,385.8h4.7v1.5h-1.4l-3.8,5.8l4,6.4h1.5l0,1.4h-5v-1.4h1.5l-3.1-5.1l-3.2,5.1h1.6v1.4h-4.8l0-1.4h1.4
					l4.1-6.4l-3.6-5.9h-1.5l0-1.5h4.9v1.5h-1.3l2.8,4.6l2.9-4.6h-1.4V385.8z"/>
			</g>
		</g>
	</g>
</g>
</svg>
