<?xml version="1.0" encoding="utf-8"?>
<!-- Generator: Adobe Illustrator 24.0.2, SVG Export Plug-In . SVG Version: 6.00 Build 0)  -->
<svg version="1.1" id="Layer_1" xmlns="http://www.w3.org/2000/svg" xmlns:xlink="http://www.w3.org/1999/xlink" x="0px" y="0px"
	 viewBox="0 0 450.4 160.5" style="enable-background:new 0 0 450.4 160.5;" xml:space="preserve">
<style type="text/css">
	.st0{fill:#D2B074;}
	.st1{fill:#D4B06C;}
	.st2{fill:#FFFFFF;}
	.st3{enable-background:new    ;}
</style>
<title>W2</title>
<path class="st0" d="M36,142.6c-10.6-4.2-19.6-7-36,4.6V84l6-6v57.3C6,135.3,24,124.9,36,142.6z"/>
<path class="st0" d="M49.2,152.9c-0.2,0.1-0.5,0.1-0.7,0c-4.1-2.6-10.5-8.3-15.2-20.6c-8.7-5.1-18.9-2.6-22.4-2.6h-0.8V33.2
	c0.5,0.3,1,0.4,1.4,0.7c2.6,1.6,4.9,3.6,7,5.7c6.5,6.7,10.7,15.2,12.2,24.4c0.6,3.4,0.8,6.9,1.2,10.3c0.5,4,0.9,8.1,1.4,12.1
	c0.2,2.1,0.4,4.2,0.6,6.3c0,0.2,0,0.4,0,0.5c-0.8,0-1.6,0.1-2.5,0.2c-2.8,0.6-5,2.9-5.4,5.8c-0.3,1.8,0.4,3.6,1.7,4.8
	c0.9,0.8,1.9,1.6,2.9,2.3L29,113c-0.2-0.1-0.4-0.1-0.7-0.2c-5.4-2.1-8.5-6.1-8.9-12.1c-0.3-4.2,1.5-8.3,4.8-10.8
	c0.5-0.4,1-0.8,1.5-1.1c0.8-0.4,1.2-1.2,1-2c-0.3-2.4-0.6-4.7-0.8-7.1c-0.4-3.6-0.8-7.2-1.1-10.8c-0.7-6.8-3-13.4-6.8-19.2
	c-0.4-0.7-0.9-1.4-1.4-2.2v76h26.3v6.1h-4.3c0.1,3.4,3.9,10.7,6.9,13.4c0-0.2,0-0.3,0-0.5c0-6.6,0-13.3,0-19.9
	c-0.1-0.9-0.4-1.8-1-2.4c-0.9-1.2-2.1-2.1-3.5-2.5l-1.1-0.4l0.9-6.2c3.2,0.8,5.5,3,8,4.9"/>
<path class="st0" d="M52.3,90.5c-2.8,2.1-5.3,4.6-7.2,7.5c-3.4,5-5.5,10.8-6.2,16.9c-0.3,2.5-0.6,4.9-0.9,7.5h-8.4
	c0-0.2-0.1-0.4-0.1-0.6c-0.1-11.3,3.9-22.2,11.2-30.8c0.7-0.9,1.3-1.9,1.8-3c2.2-5.3,3.6-11,4-16.8c0.5-6.6,0.5-13.2,0.1-19.8
	C46.4,45.2,46.2,39,46,32.8c-0.2-5.1-0.4-10.3-0.5-15.4c-0.3-5.7,1.6-11.3,5.2-15.8c0.3-0.4,0.7-0.8,1.1-1.2
	c0.2-0.2,0.3-0.3,0.5-0.4"/>
<path class="st1" d="M35.4,142.3c0,0-14.2-4.2-31.9,13.9c-0.1-1.3,0.3-4.9,0.3-4.9C12.5,143.7,24.1,140.4,35.4,142.3z"/>
<path class="st1" d="M1.9,151.9v-4.4c9.4-7.3,21.9-9.3,33.1-5.2C32.4,141,14.5,138.9,1.9,151.9z"/>
<path class="st2" d="M68.6,142.6c10.6-4.2,19.6-7,36,4.6V84l-6-6v57.3C98.6,135.3,80.5,124.9,68.6,142.6z"/>
<path class="st2" d="M55.4,152.9c0.2,0.1,0.5,0.1,0.7,0c4.1-2.6,10.5-8.3,15.2-20.6c8.7-5.1,18.9-2.6,22.4-2.6h0.8V33.2
	c-0.5,0.2-0.9,0.4-1.4,0.7c-2.6,1.6-4.9,3.5-7.1,5.7C79.6,46.4,75.4,54.9,74,64.1c-0.6,3.4-0.8,6.9-1.2,10.3
	c-0.4,4-0.9,8.1-1.4,12.1c-0.2,2.1-0.4,4.2-0.6,6.3c0,0.2,0,0.3,0,0.5c0.8,0,1.6,0.1,2.4,0.2c2.8,0.6,5,2.9,5.4,5.8
	c0.3,1.8-0.4,3.6-1.7,4.8c-0.9,0.8-2,1.5-2.9,2.3l1.5,6.5c0.2-0.1,0.4-0.1,0.7-0.2c5.4-2.1,8.5-6.1,8.9-12.1
	c0.3-4.2-1.5-8.3-4.8-10.8c-0.5-0.4-1-0.8-1.5-1.1c-0.8-0.4-1.2-1.2-1-2c0.3-2.4,0.6-4.7,0.8-7.1c0.4-3.6,0.7-7.2,1.1-10.8
	c0.7-6.8,3-13.4,6.7-19.1c0.4-0.7,0.9-1.4,1.4-2.2v76H61.7v6.1H66c-0.2,3.4-3.9,10.7-6.9,13.4c0-0.2,0-0.3,0-0.5
	c0-6.6,0-13.3,0-19.9c0.1-0.9,0.4-1.8,1-2.4c0.9-1.2,2.1-2.1,3.6-2.6c0.3-0.1,0.6-0.2,1.1-0.4l-1-6.2c-3.2,0.8-5.5,3-8,4.9"/>
<path class="st2" d="M52.3,90.5c2.8,2.1,5.3,4.6,7.2,7.5c3.4,5,5.5,10.8,6.2,16.9c0.3,2.5,0.6,4.9,0.9,7.5H75c0-0.2,0.1-0.4,0.1-0.6
	c0.1-11.3-3.9-22.2-11.2-30.8c-0.8-0.9-1.4-1.9-1.8-3c-2.2-5.3-3.6-11-4-16.8c-0.5-6.6-0.5-13.2-0.1-19.8c0.3-6.2,0.4-12.4,0.6-18.6
	c0.2-5.1,0.4-10.3,0.5-15.4c0.3-5.7-1.6-11.3-5.1-15.8c-0.3-0.4-0.7-0.8-1.1-1.2c-0.2-0.1-0.3-0.3-0.5-0.4"/>
<path class="st2" d="M69.1,142c0,0,14.2-4.2,31.9,13.9c0.1-1.3-0.3-4.9-0.3-4.9C92,143.4,80.5,140.1,69.1,142z"/>
<path class="st2" d="M102.6,151.6v-4.4c-9.4-7.3-21.9-9.3-33.1-5.2C72.1,140.7,90.1,138.6,102.6,151.6z"/>
<g class="st3">
	<path class="st1" d="M162.6,123.2H155V56l-6.7-6.7h-3.4v73.9h-7.6V49.3h-3.3v-7.6h17.4l7.4,7.4l7.4-7.4h14.1v73.9h3.3v7.6h-10.9
		V49.3h-3.4l-6.7,6.7V123.2z"/>
</g>
<g class="st3">
	<path class="st1" d="M204.8,80.7h-10.3v42.5h-7.6V53.1l11.4-11.4h14.1v73.9h3.3v7.6h-10.9V80.7z M204.8,49.3h-3.5l-6.8,6.8v17h10.3
		V49.3z"/>
	<path class="st1" d="M266.7,123.2h-28.8V77.6l-9.2,9.2v28.8h3.3v7.6h-14.1v-7.6h3.3V49.3h-3.3v-7.6h10.9v35l9.2-9.2V49.3h-3.3v-7.6
		h28.8v73.9h3.3V123.2z M245.6,115.6h10.3V49.3h-10.3V115.6z"/>
</g>
<g class="st3">
	<path class="st2" d="M295.5,123.2h-7.6V49.3h-3.3v-7.6h28.8v73.9h3.3v7.6h-10.9V49.3h-10.3V123.2z"/>
	<path class="st2" d="M345.5,41.7v39h-17.9v34.9h3.3v7.6H320V49.3h-3.3v-7.6H345.5z M327.6,73.1h10.3V49.3h-10.3V73.1z"/>
</g>
<g class="st3">
	<path class="st2" d="M370,80.7h-10.3v42.5H352V53.1l11.4-11.4h14.1v73.9h3.3v7.6H370V80.7z M370,49.3h-3.5l-6.8,6.8v17H370V49.3z"
		/>
	<path class="st2" d="M383,41.7h28.8v27.8l-7.4,7.4l7.4,7.4v31.3h3.3v7.6h-28.8V49.3H383V41.7z M393.9,76.7l10.3-10.3V49.3h-10.3
		V76.7z M393.9,87.4v28.1h10.3V87.4l-5.2-5.1L393.9,87.4z"/>
	<path class="st2" d="M417.3,41.7H446v73.9h3.3v7.6h-28.8V49.3h-3.3V41.7z M428.1,115.6h10.3V49.3h-10.3V115.6z"/>
</g>
<g class="st3">
	<path class="st1" d="M144.1,141.3c-0.4-0.1-0.8-0.2-1.2-0.2c-0.4,0-0.8-0.1-1.2-0.1c-0.8,0-1.5,0.2-2.1,0.5s-1.1,0.7-1.5,1.3
		c-0.4,0.6-0.7,1.2-0.8,2c-0.2,0.8-0.3,1.7-0.3,2.6c0,0.9,0.1,1.7,0.2,2.4c0.1,0.7,0.4,1.4,0.8,1.9c0.4,0.5,0.9,1,1.5,1.3
		c0.6,0.3,1.4,0.5,2.4,0.5c0.2,0,0.4,0,0.7,0c0.3,0,0.6,0,0.9-0.1c0.3,0,0.7-0.1,1-0.2c0.3-0.1,0.7-0.1,0.9-0.2l0.4,1.4
		c-0.3,0.1-0.6,0.2-0.9,0.3c-0.3,0.1-0.7,0.2-1.1,0.2c-0.4,0.1-0.8,0.1-1.2,0.1c-0.4,0-0.8,0.1-1.1,0.1c-1.2,0-2.2-0.2-3-0.5
		c-0.8-0.4-1.5-0.9-2-1.6c-0.5-0.7-0.9-1.5-1.1-2.4c-0.2-0.9-0.3-2-0.3-3.1c0-0.5,0-1.1,0.1-1.7c0.1-0.6,0.2-1.2,0.4-1.8
		c0.2-0.6,0.5-1.1,0.8-1.7c0.3-0.5,0.7-1,1.2-1.4c0.5-0.4,1.1-0.7,1.7-1c0.7-0.2,1.5-0.4,2.3-0.4c0.8,0,1.6,0.1,2.2,0.2
		c0.6,0.1,1.2,0.3,1.6,0.4v3.5h-1.4V141.3z"/>
</g>
<g class="st3">
	<path class="st1" d="M151.1,139.7v1.4h-1.4l1.9,5l1.4,3.8h0.1l1.3-3.8l1.8-5h-1.4v-1.4h4.3v1.4h-1.1l-4.4,11.6
		c-0.3,0.8-0.7,1.4-1.1,1.7s-1,0.5-1.7,0.5c-0.2,0-0.5,0-0.9,0c-0.4,0-0.9-0.1-1.6-0.3l0.3-1.3c0.4,0.1,0.7,0.1,1,0.2
		c0.3,0.1,0.6,0.1,0.8,0.1c0.4,0,0.7-0.1,0.9-0.3c0.2-0.2,0.5-0.6,0.7-1.1l0.4-1h-0.7l-4-10h-1.2v-1.4H151.1z"/>
</g>
<g class="st3">
	<path class="st1" d="M168.7,141.3c-0.4-0.1-0.8-0.2-1.2-0.2c-0.4,0-0.8-0.1-1.2-0.1c-0.8,0-1.5,0.2-2.1,0.5s-1.1,0.7-1.5,1.3
		c-0.4,0.6-0.7,1.2-0.8,2c-0.2,0.8-0.3,1.7-0.3,2.6c0,0.9,0.1,1.7,0.2,2.4c0.1,0.7,0.4,1.4,0.8,1.9c0.4,0.5,0.9,1,1.5,1.3
		c0.6,0.3,1.4,0.5,2.4,0.5c0.2,0,0.4,0,0.7,0c0.3,0,0.6,0,0.9-0.1c0.3,0,0.7-0.1,1-0.2c0.3-0.1,0.7-0.1,0.9-0.2l0.4,1.4
		c-0.3,0.1-0.6,0.2-0.9,0.3c-0.3,0.1-0.7,0.2-1.1,0.2c-0.4,0.1-0.8,0.1-1.2,0.1c-0.4,0-0.8,0.1-1.1,0.1c-1.2,0-2.2-0.2-3-0.5
		c-0.8-0.4-1.5-0.9-2-1.6c-0.5-0.7-0.9-1.5-1.1-2.4c-0.2-0.9-0.3-2-0.3-3.1c0-0.5,0-1.1,0.1-1.7c0.1-0.6,0.2-1.2,0.4-1.8
		c0.2-0.6,0.5-1.1,0.8-1.7c0.3-0.5,0.7-1,1.2-1.4c0.5-0.4,1.1-0.7,1.7-1c0.7-0.2,1.5-0.4,2.3-0.4c0.8,0,1.6,0.1,2.2,0.2
		c0.6,0.1,1.2,0.3,1.6,0.4v3.5h-1.4V141.3z"/>
	<path class="st1" d="M181,154.8v-1.4h1.4v-12.3h-7v12.3h1.4v1.4H172v-1.4h1.4v-12.3H172v-1.4h13.7v1.4h-1.4v12.3h1.4v1.4H181z"/>
	<path class="st1" d="M188.1,154.8v-1.4h1.4v-12.3h-1.4v-1.4h4.7v1.4h-1.4v12.3h1.4v1.4H188.1z"/>
	<path class="st1" d="M203.6,154.8v-1.4h1.3v-12.3h-4.8v1.4c0,1.6,0,3.2-0.1,4.6c-0.1,1.4-0.3,2.7-0.7,3.8c-0.3,1.1-0.9,2-1.5,2.8
		c-0.7,0.7-1.6,1.2-2.8,1.4l-0.4-1.4c0.8-0.3,1.5-0.7,2-1.3c0.5-0.6,0.9-1.3,1.1-2.2c0.3-0.9,0.4-2,0.5-3.2s0.1-2.6,0.1-4.2v-1.7
		h-1.9v-1.4h11.8v1.3h-1.4v12.4h1.4v1.4H203.6z"/>
	<path class="st1" d="M215.3,141.1h-1.6v4.8h3.5c0.8,0,1.5,0.1,2.2,0.4c0.6,0.2,1.1,0.6,1.5,1s0.7,0.9,0.9,1.4
		c0.2,0.5,0.3,1.1,0.3,1.7c0,0.8-0.1,1.4-0.4,1.9c-0.2,0.5-0.6,1-1,1.4c-0.4,0.4-0.9,0.6-1.5,0.8c-0.6,0.2-1.2,0.3-1.8,0.3h-7.3
		v-1.4h1.5v-12.3h-1.5v-1.4h4.9V141.1z M213.7,147.3v6.1h3.6c0.4,0,0.8-0.1,1.2-0.2c0.4-0.1,0.7-0.3,0.9-0.6s0.5-0.6,0.6-1
		c0.2-0.4,0.2-0.8,0.2-1.3c0-0.5-0.1-1-0.3-1.4c-0.2-0.4-0.4-0.7-0.7-1c-0.3-0.3-0.7-0.4-1-0.6c-0.4-0.1-0.8-0.2-1.2-0.2H213.7z"/>
	<path class="st1" d="M233,154.8v-1.4h1.4v-5.9h-7.1v5.9h1.4v1.4H224v-1.4h1.4v-12.3H224v-1.4h4.7v1.4h-1.4v5.1h7.1v-5.1H233v-1.4
		h4.7v1.4h-1.4v12.3h1.4v1.4H233z"/>
	<path class="st1" d="M252.4,147.3c0,1.1-0.1,2.1-0.4,3c-0.3,0.9-0.7,1.7-1.2,2.4c-0.5,0.7-1.2,1.2-2,1.6c-0.8,0.4-1.7,0.6-2.7,0.6
		c-1.2,0-2.2-0.2-3-0.5c-0.8-0.4-1.5-0.9-2-1.5c-0.5-0.7-0.9-1.5-1.1-2.4c-0.2-0.9-0.4-2-0.4-3.1c0-1,0.1-2,0.3-3
		c0.2-1,0.6-1.8,1.1-2.5c0.5-0.7,1.2-1.3,2-1.7c0.8-0.4,1.8-0.6,3-0.6c1.2,0,2.2,0.2,3,0.6s1.4,1,1.9,1.7s0.8,1.5,1,2.5
		S252.4,146.3,252.4,147.3z M250.4,147.4c0-0.7-0.1-1.5-0.2-2.3c-0.1-0.8-0.3-1.4-0.6-2c-0.3-0.6-0.7-1.1-1.3-1.5s-1.3-0.6-2.2-0.6
		s-1.7,0.2-2.2,0.5c-0.6,0.4-1,0.8-1.4,1.4c-0.3,0.6-0.6,1.3-0.7,2c-0.1,0.8-0.2,1.6-0.2,2.4c0,2,0.4,3.5,1.1,4.5s1.9,1.5,3.5,1.5
		c0.7,0,1.4-0.2,1.9-0.5c0.5-0.3,1-0.7,1.3-1.3c0.4-0.5,0.6-1.2,0.8-1.9C250.3,149,250.4,148.2,250.4,147.4z"/>
	<path class="st1" d="M269.3,154.8v-1.4h1.4v-12.3h-7v12.3h1.4v1.4h-4.7v-1.4h1.4v-12.3h-1.4v-1.4H274v1.4h-1.4v12.3h1.4v1.4H269.3z
		"/>
	<path class="st1" d="M288.7,147.3c0,1.1-0.1,2.1-0.4,3c-0.3,0.9-0.7,1.7-1.2,2.4c-0.5,0.7-1.2,1.2-2,1.6c-0.8,0.4-1.7,0.6-2.7,0.6
		c-1.2,0-2.2-0.2-3-0.5c-0.8-0.4-1.5-0.9-2-1.5c-0.5-0.7-0.9-1.5-1.1-2.4c-0.2-0.9-0.4-2-0.4-3.1c0-1,0.1-2,0.3-3
		c0.2-1,0.6-1.8,1.1-2.5c0.5-0.7,1.2-1.3,2-1.7c0.8-0.4,1.8-0.6,3-0.6c1.2,0,2.2,0.2,3,0.6s1.4,1,1.9,1.7s0.8,1.5,1,2.5
		S288.7,146.3,288.7,147.3z M286.8,147.4c0-0.7-0.1-1.5-0.2-2.3c-0.1-0.8-0.3-1.4-0.6-2c-0.3-0.6-0.7-1.1-1.3-1.5s-1.3-0.6-2.2-0.6
		s-1.7,0.2-2.2,0.5c-0.6,0.4-1,0.8-1.4,1.4c-0.3,0.6-0.6,1.3-0.7,2c-0.1,0.8-0.2,1.6-0.2,2.4c0,2,0.4,3.5,1.1,4.5s1.9,1.5,3.5,1.5
		c0.7,0,1.4-0.2,1.9-0.5c0.5-0.3,1-0.7,1.3-1.3c0.4-0.5,0.6-1.2,0.8-1.9C286.7,149,286.8,148.2,286.8,147.4z"/>
	<path class="st1" d="M299.1,154.8v-1.4h1.3v-12.3h-4.8v1.4c0,1.6,0,3.2-0.1,4.6c-0.1,1.4-0.3,2.7-0.7,3.8s-0.9,2-1.5,2.8
		c-0.7,0.7-1.6,1.2-2.8,1.4l-0.4-1.4c0.8-0.3,1.5-0.7,2-1.3c0.5-0.6,0.9-1.3,1.1-2.2c0.3-0.9,0.4-2,0.5-3.2c0.1-1.2,0.1-2.6,0.1-4.2
		v-1.7h-1.9v-1.4h11.8v1.3h-1.4v12.4h1.4v1.4H299.1z"/>
	<path class="st1" d="M306.4,154.8v-1.4h1.4v-12.3h-1.4v-1.4h4.7v1.4h-1.4v12.3h1.4v1.4H306.4z"/>
	<path class="st1" d="M316,154.8v-1.4h1.8v-12.3h-3.5v2.3h-1.4v-3.8h11.6v3.8h-1.4v-2.3h-3.4v12.3h1.8v1.4H316z"/>
	<path class="st1" d="M334.7,139.7h5.1v1.3h-1.5v12.3h1.5v1.4H335v-1.4h1.5v-9.7h0l-7.5,9v0.7h1.5v1.4h-4.8v-1.4h1.5v-12.3h-1.5
		v-1.3h4.8v1.3H329v9.7h0c1.3-1.5,2.5-3,3.8-4.5s2.5-3,3.8-4.5v-0.6h-1.8V139.7z"/>
	<path class="st1" d="M354.2,154.8h-4.7v-1.4h1.4v-5.3c-0.7,0.2-1.3,0.4-2,0.5s-1.3,0.2-1.9,0.2c-0.6,0-1.2-0.1-1.8-0.2
		c-0.5-0.1-1-0.3-1.4-0.6c-0.4-0.3-0.7-0.6-0.9-1.1c-0.2-0.4-0.3-1-0.3-1.6v-4.2h-1.4v-1.4h4.7v1.4h-1.4v3.7c0,0.9,0.3,1.6,0.8,1.9
		c0.5,0.4,1.2,0.5,2.1,0.5c0.6,0,1.2-0.1,1.8-0.2s1.2-0.3,1.7-0.5v-5.5h-1.4v-1.4h4.6v1.4h-1.5v12.3h1.5V154.8z"/>
	<path class="st1" d="M365,154.8v-1.4h1.4v-5.9h-7.1v5.9h1.4v1.4H356v-1.4h1.4v-12.3H356v-1.4h4.7v1.4h-1.4v5.1h7.1v-5.1H365v-1.4
		h4.7v1.4h-1.4v12.3h1.4v1.4H365z"/>
	<path class="st1" d="M380.6,139.7h5.1v1.3h-1.5v12.3h1.5v1.4h-4.8v-1.4h1.5v-9.7h0l-7.5,9v0.7h1.5v1.4h-4.8v-1.4h1.5v-12.3h-1.5
		v-1.3h4.8v1.3h-1.5v9.7h0c1.3-1.5,2.5-3,3.8-4.5c1.2-1.5,2.5-3,3.8-4.5v-0.6h-1.8V139.7z"/>
	<path class="st1" d="M396.4,139.7h5.1v1.3H400v12.3h1.5v1.4h-4.8v-1.4h1.5v-9.7h0l-7.5,9v0.7h1.5v1.4h-4.8v-1.4h1.5v-12.3h-1.5
		v-1.3h4.8v1.3h-1.5v9.7h0c1.3-1.5,2.5-3,3.8-4.5c1.2-1.5,2.5-3,3.8-4.5v-0.6h-1.8V139.7z M394.3,137.8c-0.4,0-0.7-0.1-1.1-0.2
		c-0.3-0.1-0.7-0.3-0.9-0.6s-0.6-0.5-0.8-0.8c-0.3-0.3-0.5-0.6-0.7-0.9l1-0.7c0.4,0.6,0.8,1,1.3,1.3c0.5,0.3,0.9,0.5,1.3,0.5
		c0.1,0,0.3,0,0.5,0c0.2,0,0.4-0.1,0.7-0.2c0.3-0.1,0.5-0.3,0.9-0.5c0.3-0.2,0.7-0.5,1.1-0.9l0.6,0.5c-0.6,0.9-1.3,1.6-1.9,1.9
		S394.9,137.8,394.3,137.8z"/>
	<path class="st1" d="M420.2,144.1c0,0.5-0.1,0.9-0.2,1.5c-0.1,0.5-0.4,1-0.7,1.5s-0.8,0.8-1.4,1.1c-0.6,0.3-1.3,0.5-2.2,0.5h-3.3
		v4.8h1.9v1.4h-5.2v-1.4h1.4v-12.3h-1.4v-1.4h6.3c0.7,0,1.3,0.1,1.9,0.3s1.1,0.5,1.5,0.8c0.4,0.4,0.7,0.8,1,1.4
		C420.1,142.7,420.2,143.4,420.2,144.1z M412.5,141.1v6h2.9c0.4,0,0.7,0,1.1-0.1c0.4-0.1,0.7-0.3,0.9-0.5c0.3-0.2,0.5-0.5,0.7-0.9
		c0.2-0.4,0.3-0.9,0.3-1.5c0-1-0.3-1.8-0.8-2.3s-1.3-0.7-2.2-0.7H412.5z"/>
	<path class="st1" d="M425.4,139.7v1.4H424l1.9,5l1.4,3.8h0.1l1.3-3.8l1.8-5h-1.4v-1.4h4.3v1.4h-1.1l-4.4,11.6
		c-0.3,0.8-0.7,1.4-1.1,1.7s-1,0.5-1.7,0.5c-0.2,0-0.5,0-0.9,0s-0.9-0.1-1.6-0.3l0.3-1.3c0.4,0.1,0.7,0.1,1,0.2
		c0.3,0.1,0.6,0.1,0.8,0.1c0.4,0,0.7-0.1,0.9-0.3c0.2-0.2,0.5-0.6,0.7-1.1l0.4-1h-0.7l-4-10H421v-1.4H425.4z"/>
	<path class="st1" d="M442.4,139.7h4.7v1.5h-1.4l-3.8,5.8l4,6.4h1.5l0,1.4h-5v-1.4h1.5l-3.1-5.1l-3.2,5.1h1.6v1.4h-4.8l0-1.4h1.4
		l4.1-6.4l-3.6-5.9h-1.5l0-1.5h4.9v1.5h-1.3l2.8,4.6l2.9-4.6h-1.4V139.7z"/>
</g>
</svg>
