<?xml version="1.0" encoding="utf-8"?><svg viewBox="0 0 606.73 342.91" xmlns="http://www.w3.org/2000/svg" xmlns:xlink="http://www.w3.org/1999/xlink"><style>:root>svg{display:none}:root>svg:target{display:block}</style><svg fill="#091d45" viewBox="0 0 606.73 342.91" id="ukraine-map" xmlns="http://www.w3.org/2000/svg"><g data-name="Layer 2"><path d="M319.19 5.22a2.61 2.61 0 10-2.61-2.61 2.61 2.61 0 002.61 2.61zM329.74 5.22a2.61 2.61 0 10-2.61-2.61 2.61 2.61 0 002.61 2.61zM340.3 5.22a2.61 2.61 0 10-2.62-2.61 2.61 2.61 0 002.62 2.61zM350.85 5.22a2.61 2.61 0 10-2.61-2.61 2.61 2.61 0 002.61 2.61zM361.4 5.22a2.61 2.61 0 10-2.61-2.61 2.61 2.61 0 002.61 2.61zM372 5.22a2.61 2.61 0 10-2.62-2.61A2.61 2.61 0 00372 5.22zM382.51 5.22a2.61 2.61 0 10-2.61-2.61 2.61 2.61 0 002.61 2.61zM319.19 15.78a2.62 2.62 0 10-2.61-2.62 2.61 2.61 0 002.61 2.62zM329.74 15.78a2.62 2.62 0 10-2.61-2.62 2.62 2.62 0 002.61 2.62zM340.3 15.78a2.62 2.62 0 10-2.62-2.62 2.61 2.61 0 002.62 2.62zM350.85 15.78a2.62 2.62 0 10-2.61-2.62 2.61 2.61 0 002.61 2.62zM361.4 15.78a2.62 2.62 0 10-2.61-2.62 2.61 2.61 0 002.61 2.62zM372 15.78a2.62 2.62 0 10-2.62-2.62 2.61 2.61 0 002.62 2.62zM382.51 15.78a2.62 2.62 0 10-2.61-2.62 2.61 2.61 0 002.61 2.62zM277 26.33a2.61 2.61 0 10-2.61-2.61 2.61 2.61 0 002.61 2.61zM287.53 26.33a2.61 2.61 0 10-2.61-2.61 2.61 2.61 0 002.61 2.61zM298.09 26.33a2.61 2.61 0 10-2.61-2.61 2.61 2.61 0 002.61 2.61zM308.64 26.33a2.61 2.61 0 10-2.64-2.61 2.61 2.61 0 002.64 2.61zM319.19 26.33a2.61 2.61 0 10-2.61-2.61 2.61 2.61 0 002.61 2.61zM329.74 26.33a2.61 2.61 0 10-2.61-2.61 2.61 2.61 0 002.61 2.61zM340.3 26.33a2.61 2.61 0 10-2.62-2.61 2.61 2.61 0 002.62 2.61zM350.85 26.33a2.61 2.61 0 10-2.61-2.61 2.61 2.61 0 002.61 2.61zM361.4 26.33a2.61 2.61 0 10-2.61-2.61 2.61 2.61 0 002.61 2.61zM372 26.33a2.61 2.61 0 10-2.62-2.61 2.61 2.61 0 002.62 2.61zM382.51 26.33a2.61 2.61 0 10-2.61-2.61 2.61 2.61 0 002.61 2.61zM393.06 26.33a2.61 2.61 0 10-2.61-2.61 2.61 2.61 0 002.61 2.61zM44.82 36.88a2.61 2.61 0 10-2.61-2.61 2.61 2.61 0 002.61 2.61zM55.38 36.88a2.61 2.61 0 10-2.62-2.61 2.61 2.61 0 002.62 2.61zM76.48 36.88a2.61 2.61 0 10-2.61-2.61 2.61 2.61 0 002.61 2.61zM87 36.88a2.61 2.61 0 10-2.61-2.61A2.61 2.61 0 0087 36.88zM97.59 36.88A2.61 2.61 0 1095 34.27a2.61 2.61 0 002.59 2.61zM108.14 36.88a2.61 2.61 0 10-2.61-2.61 2.61 2.61 0 002.61 2.61zM118.69 36.88a2.61 2.61 0 10-2.61-2.61 2.61 2.61 0 002.61 2.61zM129.24 36.88a2.61 2.61 0 10-2.61-2.61 2.61 2.61 0 002.61 2.61zM139.8 36.88a2.61 2.61 0 10-2.62-2.61 2.61 2.61 0 002.62 2.61zM150.35 36.88a2.61 2.61 0 10-2.61-2.61 2.61 2.61 0 002.61 2.61zM277 36.88a2.61 2.61 0 10-2.61-2.61 2.61 2.61 0 002.61 2.61zM287.53 36.88a2.61 2.61 0 10-2.61-2.61 2.61 2.61 0 002.61 2.61zM298.09 36.88a2.61 2.61 0 10-2.61-2.61 2.61 2.61 0 002.61 2.61zM308.64 36.88a2.61 2.61 0 10-2.64-2.61 2.61 2.61 0 002.64 2.61zM319.19 36.88a2.61 2.61 0 10-2.61-2.61 2.61 2.61 0 002.61 2.61zM329.74 36.88a2.61 2.61 0 10-2.61-2.61 2.61 2.61 0 002.61 2.61zM340.3 36.88a2.61 2.61 0 10-2.62-2.61 2.61 2.61 0 002.62 2.61zM350.85 36.88a2.61 2.61 0 10-2.61-2.61 2.61 2.61 0 002.61 2.61zM361.4 36.88a2.61 2.61 0 10-2.61-2.61 2.61 2.61 0 002.61 2.61zM372 36.88a2.61 2.61 0 10-2.62-2.61 2.61 2.61 0 002.62 2.61zM382.51 36.88a2.61 2.61 0 10-2.61-2.61 2.61 2.61 0 002.61 2.61zM393.06 36.88a2.61 2.61 0 10-2.61-2.61 2.61 2.61 0 002.61 2.61zM44.82 47.43a2.61 2.61 0 10-2.61-2.61 2.61 2.61 0 002.61 2.61zM55.38 47.43a2.61 2.61 0 10-2.62-2.61 2.61 2.61 0 002.62 2.61zM65.93 47.43a2.61 2.61 0 10-2.61-2.61 2.61 2.61 0 002.61 2.61zM76.48 47.43a2.61 2.61 0 10-2.61-2.61 2.61 2.61 0 002.61 2.61zM87 47.43a2.61 2.61 0 10-2.61-2.61A2.61 2.61 0 0087 47.43zM97.59 47.43A2.61 2.61 0 1095 44.82a2.61 2.61 0 002.59 2.61zM108.14 47.43a2.61 2.61 0 10-2.61-2.61 2.61 2.61 0 002.61 2.61zM118.69 47.43a2.61 2.61 0 10-2.61-2.61 2.61 2.61 0 002.61 2.61zM129.24 47.43a2.61 2.61 0 10-2.61-2.61 2.61 2.61 0 002.61 2.61zM139.8 47.43a2.61 2.61 0 10-2.62-2.61 2.61 2.61 0 002.62 2.61zM150.35 47.43a2.61 2.61 0 10-2.61-2.61 2.61 2.61 0 002.61 2.61zM160.9 47.43a2.61 2.61 0 10-2.61-2.61 2.61 2.61 0 002.61 2.61zM171.45 47.43a2.61 2.61 0 10-2.61-2.61 2.61 2.61 0 002.61 2.61zM182 47.43a2.61 2.61 0 10-2.61-2.61 2.61 2.61 0 002.61 2.61zM192.56 47.43a2.61 2.61 0 10-2.56-2.61 2.61 2.61 0 002.56 2.61zM203.11 47.43a2.61 2.61 0 10-2.61-2.61 2.61 2.61 0 002.61 2.61zM213.67 47.43a2.61 2.61 0 10-2.62-2.61 2.61 2.61 0 002.62 2.61zM224.22 47.43a2.61 2.61 0 10-2.61-2.61 2.61 2.61 0 002.61 2.61zM234.77 47.43a2.61 2.61 0 10-2.61-2.61 2.61 2.61 0 002.61 2.61zM245.32 47.43a2.61 2.61 0 10-2.61-2.61 2.61 2.61 0 002.61 2.61zM255.88 47.43a2.61 2.61 0 10-2.62-2.61 2.61 2.61 0 002.62 2.61zM266.43 47.43a2.61 2.61 0 10-2.61-2.61 2.61 2.61 0 002.61 2.61zM277 47.43a2.61 2.61 0 10-2.61-2.61 2.61 2.61 0 002.61 2.61zM287.53 47.43a2.61 2.61 0 10-2.61-2.61 2.61 2.61 0 002.61 2.61zM298.09 47.43a2.61 2.61 0 10-2.61-2.61 2.61 2.61 0 002.61 2.61zM308.64 47.43a2.61 2.61 0 10-2.64-2.61 2.61 2.61 0 002.64 2.61zM319.19 47.43a2.61 2.61 0 10-2.61-2.61 2.61 2.61 0 002.61 2.61zM329.74 47.43a2.61 2.61 0 10-2.61-2.61 2.61 2.61 0 002.61 2.61zM340.3 47.43a2.61 2.61 0 10-2.62-2.61 2.61 2.61 0 002.62 2.61zM350.85 47.43a2.61 2.61 0 10-2.61-2.61 2.61 2.61 0 002.61 2.61zM361.4 47.43a2.61 2.61 0 10-2.61-2.61 2.61 2.61 0 002.61 2.61zM372 47.43a2.61 2.61 0 10-2.62-2.61 2.61 2.61 0 002.62 2.61zM382.51 47.43a2.61 2.61 0 10-2.61-2.61 2.61 2.61 0 002.61 2.61zM393.06 47.43a2.61 2.61 0 10-2.61-2.61 2.61 2.61 0 002.61 2.61zM403.61 47.43a2.61 2.61 0 10-2.61-2.61 2.61 2.61 0 002.61 2.61zM414.16 47.43a2.61 2.61 0 10-2.61-2.61 2.61 2.61 0 002.61 2.61zM424.72 47.43a2.61 2.61 0 10-2.61-2.61 2.61 2.61 0 002.61 2.61zM44.82 58a2.62 2.62 0 10-2.61-2.61A2.61 2.61 0 0044.82 58zM55.38 58a2.62 2.62 0 10-2.62-2.61A2.61 2.61 0 0055.38 58z"/><circle cx="65.93" cy="55.38" r="2.61"/><path d="M76.48 58a2.62 2.62 0 10-2.61-2.61A2.61 2.61 0 0076.48 58zM87 58a2.62 2.62 0 10-2.61-2.61A2.61 2.61 0 0087 58zM97.59 58A2.62 2.62 0 1095 55.38 2.61 2.61 0 0097.59 58zM108.14 58a2.62 2.62 0 10-2.61-2.61 2.61 2.61 0 002.61 2.61zM118.69 58a2.62 2.62 0 10-2.61-2.61 2.61 2.61 0 002.61 2.61z"/><circle cx="129.24" cy="55.38" r="2.61"/><path d="M139.8 58a2.62 2.62 0 10-2.62-2.61A2.61 2.61 0 00139.8 58z"/><circle cx="150.35" cy="55.38" r="2.61"/><circle cx="160.9" cy="55.38" r="2.61"/><path d="M171.45 58a2.62 2.62 0 10-2.61-2.61 2.61 2.61 0 002.61 2.61zM182 58a2.62 2.62 0 10-2.61-2.61A2.61 2.61 0 00182 58zM192.56 58a2.62 2.62 0 10-2.56-2.62 2.61 2.61 0 002.56 2.62z"/><circle cx="203.11" cy="55.38" r="2.61"/><circle cx="213.67" cy="55.38" r="2.61"/><path d="M224.22 58a2.62 2.62 0 10-2.61-2.61 2.61 2.61 0 002.61 2.61zM234.77 58a2.62 2.62 0 10-2.61-2.61 2.61 2.61 0 002.61 2.61zM245.32 58a2.62 2.62 0 10-2.61-2.61 2.61 2.61 0 002.61 2.61zM255.88 58a2.62 2.62 0 10-2.62-2.61 2.61 2.61 0 002.62 2.61zM266.43 58a2.62 2.62 0 10-2.61-2.61 2.61 2.61 0 002.61 2.61zM277 58a2.62 2.62 0 10-2.61-2.61A2.61 2.61 0 00277 58zM287.53 58a2.62 2.62 0 10-2.61-2.61 2.61 2.61 0 002.61 2.61zM298.09 58a2.62 2.62 0 10-2.61-2.61 2.61 2.61 0 002.61 2.61zM308.64 58a2.62 2.62 0 10-2.64-2.62 2.61 2.61 0 002.64 2.62zM319.19 58a2.62 2.62 0 10-2.61-2.61 2.61 2.61 0 002.61 2.61zM329.74 58a2.62 2.62 0 10-2.61-2.61 2.61 2.61 0 002.61 2.61zM340.3 58a2.62 2.62 0 10-2.62-2.61A2.61 2.61 0 00340.3 58zM350.85 58a2.62 2.62 0 10-2.61-2.61 2.61 2.61 0 002.61 2.61zM361.4 58a2.62 2.62 0 10-2.61-2.61A2.61 2.61 0 00361.4 58zM372 58a2.62 2.62 0 10-2.62-2.61A2.61 2.61 0 00372 58zM382.51 58a2.62 2.62 0 10-2.61-2.61 2.61 2.61 0 002.61 2.61zM393.06 58a2.62 2.62 0 10-2.61-2.61 2.61 2.61 0 002.61 2.61zM403.61 58a2.62 2.62 0 10-2.61-2.62 2.61 2.61 0 002.61 2.62zM414.16 58a2.62 2.62 0 10-2.61-2.61 2.61 2.61 0 002.61 2.61zM424.72 58a2.62 2.62 0 10-2.61-2.61 2.61 2.61 0 002.61 2.61z"/><circle cx="435.27" cy="55.38" r="2.61"/><path d="M44.82 68.54a2.61 2.61 0 10-2.61-2.61 2.61 2.61 0 002.61 2.61zM55.38 68.54a2.61 2.61 0 10-2.62-2.61 2.61 2.61 0 002.62 2.61z"/><circle cx="65.93" cy="65.93" r="2.61"/><path d="M76.48 68.54a2.61 2.61 0 10-2.61-2.61 2.61 2.61 0 002.61 2.61zM87 68.54a2.61 2.61 0 10-2.61-2.61A2.61 2.61 0 0087 68.54zM97.59 68.54A2.61 2.61 0 1095 65.93a2.61 2.61 0 002.59 2.61zM108.14 68.54a2.61 2.61 0 10-2.61-2.61 2.61 2.61 0 002.61 2.61zM118.69 68.54a2.61 2.61 0 10-2.61-2.61 2.61 2.61 0 002.61 2.61z"/><circle cx="129.24" cy="65.93" r="2.61"/><path d="M139.8 68.54a2.61 2.61 0 10-2.62-2.61 2.61 2.61 0 002.62 2.61z"/><circle cx="150.35" cy="65.93" r="2.61"/><circle cx="160.9" cy="65.93" r="2.61"/><path d="M171.45 68.54a2.61 2.61 0 10-2.61-2.61 2.61 2.61 0 002.61 2.61zM182 68.54a2.61 2.61 0 10-2.61-2.61 2.61 2.61 0 002.61 2.61zM192.56 68.54a2.61 2.61 0 10-2.56-2.61 2.61 2.61 0 002.56 2.61z"/><circle cx="203.11" cy="65.93" r="2.61"/><circle cx="213.67" cy="65.93" r="2.61"/><path d="M224.22 68.54a2.61 2.61 0 10-2.61-2.61 2.61 2.61 0 002.61 2.61zM234.77 68.54a2.61 2.61 0 10-2.61-2.61 2.61 2.61 0 002.61 2.61zM245.32 68.54a2.61 2.61 0 10-2.61-2.61 2.61 2.61 0 002.61 2.61zM255.88 68.54a2.61 2.61 0 10-2.62-2.61 2.61 2.61 0 002.62 2.61zM266.43 68.54a2.61 2.61 0 10-2.61-2.61 2.61 2.61 0 002.61 2.61zM277 68.54a2.61 2.61 0 10-2.61-2.61 2.61 2.61 0 002.61 2.61zM287.53 68.54a2.61 2.61 0 10-2.61-2.61 2.61 2.61 0 002.61 2.61zM298.09 68.54a2.61 2.61 0 10-2.61-2.61 2.61 2.61 0 002.61 2.61zM308.64 68.54a2.61 2.61 0 10-2.64-2.61 2.61 2.61 0 002.64 2.61zM319.19 68.54a2.61 2.61 0 10-2.61-2.61 2.61 2.61 0 002.61 2.61zM329.74 68.54a2.61 2.61 0 10-2.61-2.61 2.61 2.61 0 002.61 2.61zM340.3 68.54a2.61 2.61 0 10-2.62-2.61 2.61 2.61 0 002.62 2.61zM350.85 68.54a2.61 2.61 0 10-2.61-2.61 2.61 2.61 0 002.61 2.61zM361.4 68.54a2.61 2.61 0 10-2.61-2.61 2.61 2.61 0 002.61 2.61zM372 68.54a2.61 2.61 0 10-2.62-2.61 2.61 2.61 0 002.62 2.61zM382.51 68.54a2.61 2.61 0 10-2.61-2.61 2.61 2.61 0 002.61 2.61zM393.06 68.54a2.61 2.61 0 10-2.61-2.61 2.61 2.61 0 002.61 2.61zM403.61 68.54a2.61 2.61 0 10-2.61-2.61 2.61 2.61 0 002.61 2.61zM414.16 68.54a2.61 2.61 0 10-2.61-2.61 2.61 2.61 0 002.61 2.61zM424.72 68.54a2.61 2.61 0 10-2.61-2.61 2.61 2.61 0 002.61 2.61z"/><circle cx="435.27" cy="65.93" r="2.61"/><path d="M55.38 79.09a2.61 2.61 0 10-2.62-2.61 2.61 2.61 0 002.62 2.61zM65.93 79.09a2.61 2.61 0 10-2.61-2.61 2.61 2.61 0 002.61 2.61zM76.48 79.09a2.61 2.61 0 10-2.61-2.61 2.61 2.61 0 002.61 2.61zM87 79.09a2.61 2.61 0 10-2.61-2.61A2.61 2.61 0 0087 79.09zM97.59 79.09A2.61 2.61 0 1095 76.48a2.61 2.61 0 002.59 2.61zM108.14 79.09a2.61 2.61 0 10-2.61-2.61 2.61 2.61 0 002.61 2.61zM118.69 79.09a2.61 2.61 0 10-2.61-2.61 2.61 2.61 0 002.61 2.61zM129.24 79.09a2.61 2.61 0 10-2.61-2.61 2.61 2.61 0 002.61 2.61zM139.8 79.09a2.61 2.61 0 10-2.62-2.61 2.61 2.61 0 002.62 2.61zM150.35 79.09a2.61 2.61 0 10-2.61-2.61 2.61 2.61 0 002.61 2.61zM160.9 79.09a2.61 2.61 0 10-2.61-2.61 2.61 2.61 0 002.61 2.61zM171.45 79.09a2.61 2.61 0 10-2.61-2.61 2.61 2.61 0 002.61 2.61zM182 79.09a2.61 2.61 0 10-2.61-2.61 2.61 2.61 0 002.61 2.61zM192.56 79.09a2.61 2.61 0 10-2.56-2.61 2.61 2.61 0 002.56 2.61zM203.11 79.09a2.61 2.61 0 10-2.61-2.61 2.61 2.61 0 002.61 2.61zM213.67 79.09a2.61 2.61 0 10-2.62-2.61 2.61 2.61 0 002.62 2.61zM224.22 79.09a2.61 2.61 0 10-2.61-2.61 2.61 2.61 0 002.61 2.61zM234.77 79.09a2.61 2.61 0 10-2.61-2.61 2.61 2.61 0 002.61 2.61zM245.32 79.09a2.61 2.61 0 10-2.61-2.61 2.61 2.61 0 002.61 2.61zM255.88 79.09a2.61 2.61 0 10-2.62-2.61 2.61 2.61 0 002.62 2.61zM266.43 79.09a2.61 2.61 0 10-2.61-2.61 2.61 2.61 0 002.61 2.61zM277 79.09a2.61 2.61 0 10-2.61-2.61 2.61 2.61 0 002.61 2.61zM287.53 79.09a2.61 2.61 0 10-2.61-2.61 2.61 2.61 0 002.61 2.61zM298.09 79.09a2.61 2.61 0 10-2.61-2.61 2.61 2.61 0 002.61 2.61zM308.64 79.09a2.61 2.61 0 10-2.64-2.61 2.61 2.61 0 002.64 2.61zM319.19 79.09a2.61 2.61 0 10-2.61-2.61 2.61 2.61 0 002.61 2.61zM329.74 79.09a2.61 2.61 0 10-2.61-2.61 2.61 2.61 0 002.61 2.61zM340.3 79.09a2.61 2.61 0 10-2.62-2.61 2.61 2.61 0 002.62 2.61zM350.85 79.09a2.61 2.61 0 10-2.61-2.61 2.61 2.61 0 002.61 2.61zM361.4 79.09a2.61 2.61 0 10-2.61-2.61 2.61 2.61 0 002.61 2.61zM372 79.09a2.61 2.61 0 10-2.62-2.61 2.61 2.61 0 002.62 2.61zM382.51 79.09a2.61 2.61 0 10-2.61-2.61 2.61 2.61 0 002.61 2.61zM393.06 79.09a2.61 2.61 0 10-2.61-2.61 2.61 2.61 0 002.61 2.61zM403.61 79.09a2.61 2.61 0 10-2.61-2.61 2.61 2.61 0 002.61 2.61zM414.16 79.09a2.61 2.61 0 10-2.61-2.61 2.61 2.61 0 002.61 2.61zM424.72 79.09a2.61 2.61 0 10-2.61-2.61 2.61 2.61 0 002.61 2.61zM435.27 79.09a2.61 2.61 0 10-2.61-2.61 2.61 2.61 0 002.61 2.61zM445.82 79.09a2.61 2.61 0 10-2.61-2.61 2.61 2.61 0 002.61 2.61zM55.38 89.64A2.61 2.61 0 1052.76 87a2.61 2.61 0 002.62 2.64zM65.93 89.64A2.61 2.61 0 1063.32 87a2.61 2.61 0 002.61 2.64zM76.48 89.64A2.61 2.61 0 1073.87 87a2.61 2.61 0 002.61 2.64zM87 89.64A2.61 2.61 0 1084.42 87 2.6 2.6 0 0087 89.64zM97.59 89.64A2.61 2.61 0 1095 87a2.61 2.61 0 002.59 2.64zM108.14 89.64a2.61 2.61 0 10-2.61-2.64 2.61 2.61 0 002.61 2.64zM118.69 89.64a2.61 2.61 0 10-2.61-2.64 2.61 2.61 0 002.61 2.64zM129.24 89.64a2.61 2.61 0 10-2.61-2.64 2.61 2.61 0 002.61 2.64zM139.8 89.64a2.61 2.61 0 10-2.62-2.64 2.61 2.61 0 002.62 2.64zM150.35 89.64a2.61 2.61 0 10-2.61-2.64 2.61 2.61 0 002.61 2.64zM160.9 89.64a2.61 2.61 0 10-2.61-2.64 2.61 2.61 0 002.61 2.64zM171.45 89.64a2.61 2.61 0 10-2.61-2.64 2.61 2.61 0 002.61 2.64zM182 89.64a2.61 2.61 0 10-2.6-2.64 2.61 2.61 0 002.6 2.64zM192.56 89.64A2.61 2.61 0 10190 87a2.61 2.61 0 002.56 2.64zM203.11 89.64A2.61 2.61 0 10200.5 87a2.61 2.61 0 002.61 2.64zM213.67 89.64a2.61 2.61 0 10-2.62-2.64 2.61 2.61 0 002.62 2.64zM224.22 89.64a2.61 2.61 0 10-2.61-2.64 2.61 2.61 0 002.61 2.64zM234.77 89.64a2.61 2.61 0 10-2.61-2.64 2.61 2.61 0 002.61 2.64zM245.32 89.64a2.61 2.61 0 10-2.61-2.64 2.6 2.6 0 002.61 2.64zM255.88 89.64a2.61 2.61 0 10-2.62-2.64 2.61 2.61 0 002.62 2.64zM266.43 89.64a2.61 2.61 0 10-2.61-2.64 2.61 2.61 0 002.61 2.64zM277 89.64a2.61 2.61 0 10-2.63-2.64 2.61 2.61 0 002.63 2.64zM287.53 89.64a2.61 2.61 0 10-2.61-2.64 2.61 2.61 0 002.61 2.64zM298.09 89.64a2.61 2.61 0 10-2.61-2.64 2.61 2.61 0 002.61 2.64zM308.64 89.64A2.61 2.61 0 10306 87a2.61 2.61 0 002.64 2.64zM319.19 89.64a2.61 2.61 0 10-2.61-2.64 2.61 2.61 0 002.61 2.64zM329.74 89.64a2.61 2.61 0 10-2.61-2.64 2.61 2.61 0 002.61 2.64zM340.3 89.64a2.61 2.61 0 10-2.62-2.64 2.61 2.61 0 002.62 2.64zM350.85 89.64a2.61 2.61 0 10-2.61-2.64 2.61 2.61 0 002.61 2.64zM361.4 89.64a2.61 2.61 0 10-2.61-2.64 2.61 2.61 0 002.61 2.64zM372 89.64a2.61 2.61 0 10-2.66-2.64 2.61 2.61 0 002.66 2.64zM382.51 89.64A2.61 2.61 0 10379.9 87a2.61 2.61 0 002.61 2.64zM393.06 89.64a2.61 2.61 0 10-2.61-2.64 2.61 2.61 0 002.61 2.64zM403.61 89.64A2.61 2.61 0 10401 87a2.61 2.61 0 002.61 2.64zM414.16 89.64a2.61 2.61 0 10-2.61-2.64 2.61 2.61 0 002.61 2.64zM424.72 89.64a2.61 2.61 0 10-2.61-2.64 2.61 2.61 0 002.61 2.64zM435.27 89.64a2.61 2.61 0 10-2.61-2.64 2.61 2.61 0 002.61 2.64zM445.82 89.64a2.61 2.61 0 10-2.61-2.64 2.6 2.6 0 002.61 2.64zM456.38 89.64a2.61 2.61 0 10-2.62-2.64 2.61 2.61 0 002.62 2.64zM466.93 89.64a2.61 2.61 0 10-2.61-2.64 2.61 2.61 0 002.61 2.64zM477.48 89.64a2.61 2.61 0 10-2.61-2.64 2.6 2.6 0 002.61 2.64zM488 89.64a2.61 2.61 0 10-2.58-2.64 2.61 2.61 0 002.58 2.64zM498.59 89.64A2.61 2.61 0 10496 87a2.61 2.61 0 002.59 2.64zM509.14 89.64a2.61 2.61 0 10-2.61-2.64 2.61 2.61 0 002.61 2.64zM55.38 100.2a2.62 2.62 0 10-2.62-2.61 2.61 2.61 0 002.62 2.61zM65.93 100.2a2.62 2.62 0 10-2.61-2.61 2.61 2.61 0 002.61 2.61zM76.48 100.2a2.62 2.62 0 10-2.61-2.61 2.61 2.61 0 002.61 2.61zM87 100.2a2.62 2.62 0 10-2.61-2.61A2.61 2.61 0 0087 100.2zM97.59 100.2A2.62 2.62 0 1095 97.59a2.61 2.61 0 002.59 2.61zM108.14 100.2a2.62 2.62 0 10-2.61-2.61 2.61 2.61 0 002.61 2.61zM118.69 100.2a2.62 2.62 0 10-2.61-2.61 2.61 2.61 0 002.61 2.61zM129.24 100.2a2.62 2.62 0 10-2.61-2.61 2.61 2.61 0 002.61 2.61zM139.8 100.2a2.62 2.62 0 10-2.62-2.61 2.61 2.61 0 002.62 2.61zM150.35 100.2a2.62 2.62 0 10-2.61-2.61 2.61 2.61 0 002.61 2.61zM160.9 100.2a2.62 2.62 0 10-2.61-2.61 2.61 2.61 0 002.61 2.61zM171.45 100.2a2.62 2.62 0 10-2.61-2.61 2.61 2.61 0 002.61 2.61zM182 100.2a2.62 2.62 0 10-2.61-2.61 2.61 2.61 0 002.61 2.61zM192.56 100.2a2.62 2.62 0 10-2.56-2.61 2.61 2.61 0 002.56 2.61zM203.11 100.2a2.62 2.62 0 10-2.61-2.61 2.61 2.61 0 002.61 2.61zM213.67 100.2a2.62 2.62 0 10-2.62-2.61 2.61 2.61 0 002.62 2.61zM224.22 100.2a2.62 2.62 0 10-2.61-2.61 2.61 2.61 0 002.61 2.61zM234.77 100.2a2.62 2.62 0 10-2.61-2.61 2.61 2.61 0 002.61 2.61zM245.32 100.2a2.62 2.62 0 10-2.61-2.61 2.61 2.61 0 002.61 2.61zM255.88 100.2a2.62 2.62 0 10-2.62-2.61 2.61 2.61 0 002.62 2.61zM266.43 100.2a2.62 2.62 0 10-2.61-2.61 2.61 2.61 0 002.61 2.61zM277 100.2a2.62 2.62 0 10-2.61-2.61 2.61 2.61 0 002.61 2.61zM287.53 100.2a2.62 2.62 0 10-2.61-2.61 2.61 2.61 0 002.61 2.61zM298.09 100.2a2.62 2.62 0 10-2.61-2.61 2.61 2.61 0 002.61 2.61zM308.64 100.2a2.62 2.62 0 10-2.64-2.61 2.61 2.61 0 002.64 2.61zM319.19 100.2a2.62 2.62 0 10-2.61-2.61 2.61 2.61 0 002.61 2.61zM329.74 100.2a2.62 2.62 0 10-2.61-2.61 2.61 2.61 0 002.61 2.61zM340.3 100.2a2.62 2.62 0 10-2.62-2.61 2.61 2.61 0 002.62 2.61zM350.85 100.2a2.62 2.62 0 10-2.61-2.61 2.61 2.61 0 002.61 2.61zM361.4 100.2a2.62 2.62 0 10-2.61-2.61 2.61 2.61 0 002.61 2.61zM372 100.2a2.62 2.62 0 10-2.62-2.61 2.61 2.61 0 002.62 2.61zM382.51 100.2a2.62 2.62 0 10-2.61-2.61 2.61 2.61 0 002.61 2.61zM393.06 100.2a2.62 2.62 0 10-2.61-2.61 2.61 2.61 0 002.61 2.61zM403.61 100.2a2.62 2.62 0 10-2.61-2.61 2.61 2.61 0 002.61 2.61zM414.16 100.2a2.62 2.62 0 10-2.61-2.61 2.61 2.61 0 002.61 2.61zM424.72 100.2a2.62 2.62 0 10-2.61-2.61 2.61 2.61 0 002.61 2.61zM435.27 100.2a2.62 2.62 0 10-2.61-2.61 2.61 2.61 0 002.61 2.61zM445.82 100.2a2.62 2.62 0 10-2.61-2.61 2.61 2.61 0 002.61 2.61zM456.38 100.2a2.62 2.62 0 10-2.62-2.61 2.61 2.61 0 002.62 2.61zM466.93 100.2a2.62 2.62 0 10-2.61-2.61 2.61 2.61 0 002.61 2.61zM477.48 100.2a2.62 2.62 0 10-2.61-2.61 2.61 2.61 0 002.61 2.61zM488 100.2a2.62 2.62 0 10-2.61-2.61 2.61 2.61 0 002.61 2.61zM498.59 100.2a2.62 2.62 0 10-2.59-2.61 2.61 2.61 0 002.59 2.61zM509.14 100.2a2.62 2.62 0 10-2.61-2.61 2.61 2.61 0 002.61 2.61zM519.69 100.2a2.62 2.62 0 10-2.61-2.61 2.61 2.61 0 002.61 2.61zM44.82 110.75a2.61 2.61 0 10-2.61-2.61 2.61 2.61 0 002.61 2.61zM55.38 110.75a2.61 2.61 0 10-2.62-2.61 2.61 2.61 0 002.62 2.61zM65.93 110.75a2.61 2.61 0 10-2.61-2.61 2.61 2.61 0 002.61 2.61zM76.48 110.75a2.61 2.61 0 10-2.61-2.61 2.61 2.61 0 002.61 2.61zM87 110.75a2.61 2.61 0 10-2.61-2.61 2.61 2.61 0 002.61 2.61zM97.59 110.75a2.61 2.61 0 10-2.59-2.61 2.61 2.61 0 002.59 2.61zM108.14 110.75a2.61 2.61 0 10-2.61-2.61 2.61 2.61 0 002.61 2.61zM118.69 110.75a2.61 2.61 0 10-2.61-2.61 2.61 2.61 0 002.61 2.61zM129.24 110.75a2.61 2.61 0 10-2.61-2.61 2.61 2.61 0 002.61 2.61zM139.8 110.75a2.61 2.61 0 10-2.62-2.61 2.61 2.61 0 002.62 2.61zM150.35 110.75a2.61 2.61 0 10-2.61-2.61 2.61 2.61 0 002.61 2.61zM160.9 110.75a2.61 2.61 0 10-2.61-2.61 2.61 2.61 0 002.61 2.61zM171.45 110.75a2.61 2.61 0 10-2.61-2.61 2.61 2.61 0 002.61 2.61zM182 110.75a2.61 2.61 0 10-2.61-2.61 2.61 2.61 0 002.61 2.61zM192.56 110.75a2.61 2.61 0 10-2.61-2.61 2.61 2.61 0 002.61 2.61zM203.11 110.75a2.61 2.61 0 10-2.61-2.61 2.61 2.61 0 002.61 2.61zM213.67 110.75a2.61 2.61 0 10-2.62-2.61 2.61 2.61 0 002.62 2.61zM224.22 110.75a2.61 2.61 0 10-2.61-2.61 2.61 2.61 0 002.61 2.61zM234.77 110.75a2.61 2.61 0 10-2.61-2.61 2.61 2.61 0 002.61 2.61zM245.32 110.75a2.61 2.61 0 10-2.61-2.61 2.61 2.61 0 002.61 2.61zM255.88 110.75a2.61 2.61 0 10-2.62-2.61 2.61 2.61 0 002.62 2.61zM266.43 110.75a2.61 2.61 0 10-2.61-2.61 2.61 2.61 0 002.61 2.61zM277 110.75a2.61 2.61 0 10-2.61-2.61 2.61 2.61 0 002.61 2.61zM287.53 110.75a2.61 2.61 0 10-2.61-2.61 2.61 2.61 0 002.61 2.61zM298.09 110.75a2.61 2.61 0 10-2.61-2.61 2.61 2.61 0 002.61 2.61zM308.64 110.75a2.61 2.61 0 10-2.61-2.61 2.61 2.61 0 002.61 2.61zM319.19 110.75a2.61 2.61 0 10-2.61-2.61 2.61 2.61 0 002.61 2.61zM329.74 110.75a2.61 2.61 0 10-2.61-2.61 2.61 2.61 0 002.61 2.61zM340.3 110.75a2.61 2.61 0 10-2.62-2.61 2.61 2.61 0 002.62 2.61zM350.85 110.75a2.61 2.61 0 10-2.61-2.61 2.61 2.61 0 002.61 2.61zM361.4 110.75a2.61 2.61 0 10-2.61-2.61 2.61 2.61 0 002.61 2.61zM372 110.75a2.61 2.61 0 10-2.62-2.61 2.61 2.61 0 002.62 2.61zM382.51 110.75a2.61 2.61 0 10-2.61-2.61 2.61 2.61 0 002.61 2.61zM393.06 110.75a2.61 2.61 0 10-2.61-2.61 2.61 2.61 0 002.61 2.61zM403.61 110.75a2.61 2.61 0 10-2.61-2.61 2.61 2.61 0 002.61 2.61zM414.16 110.75a2.61 2.61 0 10-2.61-2.61 2.61 2.61 0 002.61 2.61zM424.72 110.75a2.61 2.61 0 10-2.61-2.61 2.61 2.61 0 002.61 2.61zM435.27 110.75a2.61 2.61 0 10-2.61-2.61 2.61 2.61 0 002.61 2.61zM445.82 110.75a2.61 2.61 0 10-2.61-2.61 2.61 2.61 0 002.61 2.61zM456.38 110.75a2.61 2.61 0 10-2.62-2.61 2.61 2.61 0 002.62 2.61zM466.93 110.75a2.61 2.61 0 10-2.61-2.61 2.61 2.61 0 002.61 2.61zM477.48 110.75a2.61 2.61 0 10-2.61-2.61 2.61 2.61 0 002.61 2.61zM488 110.75a2.61 2.61 0 10-2.61-2.61 2.61 2.61 0 002.61 2.61zM498.59 110.75a2.61 2.61 0 10-2.61-2.61 2.61 2.61 0 002.61 2.61zM509.14 110.75a2.61 2.61 0 10-2.61-2.61 2.61 2.61 0 002.61 2.61zM519.69 110.75a2.61 2.61 0 10-2.61-2.61 2.61 2.61 0 002.61 2.61zM530.24 110.75a2.61 2.61 0 10-2.61-2.61 2.61 2.61 0 002.61 2.61zM540.8 110.75a2.61 2.61 0 10-2.61-2.61 2.61 2.61 0 002.61 2.61zM551.35 110.75a2.61 2.61 0 10-2.61-2.61 2.61 2.61 0 002.61 2.61zM561.9 110.75a2.61 2.61 0 10-2.61-2.61 2.61 2.61 0 002.61 2.61zM572.46 110.75a2.61 2.61 0 10-2.62-2.61 2.61 2.61 0 002.62 2.61zM44.82 121.3a2.61 2.61 0 10-2.61-2.61 2.61 2.61 0 002.61 2.61zM55.38 121.3a2.61 2.61 0 10-2.62-2.61 2.61 2.61 0 002.62 2.61zM65.93 121.3a2.61 2.61 0 10-2.61-2.61 2.61 2.61 0 002.61 2.61zM76.48 121.3a2.61 2.61 0 10-2.61-2.61 2.61 2.61 0 002.61 2.61zM87 121.3a2.61 2.61 0 10-2.61-2.61A2.61 2.61 0 0087 121.3zM97.59 121.3a2.61 2.61 0 10-2.59-2.61 2.61 2.61 0 002.59 2.61zM108.14 121.3a2.61 2.61 0 10-2.61-2.61 2.61 2.61 0 002.61 2.61zM118.69 121.3a2.61 2.61 0 10-2.61-2.61 2.61 2.61 0 002.61 2.61zM129.24 121.3a2.61 2.61 0 10-2.61-2.61 2.61 2.61 0 002.61 2.61zM139.8 121.3a2.61 2.61 0 10-2.62-2.61 2.61 2.61 0 002.62 2.61zM150.35 121.3a2.61 2.61 0 10-2.61-2.61 2.61 2.61 0 002.61 2.61zM160.9 121.3a2.61 2.61 0 10-2.61-2.61 2.61 2.61 0 002.61 2.61zM171.45 121.3a2.61 2.61 0 10-2.61-2.61 2.61 2.61 0 002.61 2.61zM182 121.3a2.61 2.61 0 10-2.61-2.61 2.61 2.61 0 002.61 2.61zM192.56 121.3a2.61 2.61 0 10-2.61-2.61 2.61 2.61 0 002.61 2.61zM203.11 121.3a2.61 2.61 0 10-2.61-2.61 2.61 2.61 0 002.61 2.61zM213.67 121.3a2.61 2.61 0 10-2.62-2.61 2.61 2.61 0 002.62 2.61zM224.22 121.3a2.61 2.61 0 10-2.61-2.61 2.61 2.61 0 002.61 2.61zM234.77 121.3a2.61 2.61 0 10-2.61-2.61 2.61 2.61 0 002.61 2.61zM245.32 121.3a2.61 2.61 0 10-2.61-2.61 2.61 2.61 0 002.61 2.61zM255.88 121.3a2.61 2.61 0 10-2.62-2.61 2.61 2.61 0 002.62 2.61zM266.43 121.3a2.61 2.61 0 10-2.61-2.61 2.61 2.61 0 002.61 2.61zM277 121.3a2.61 2.61 0 10-2.61-2.61 2.61 2.61 0 002.61 2.61zM287.53 121.3a2.61 2.61 0 10-2.61-2.61 2.61 2.61 0 002.61 2.61zM298.09 121.3a2.61 2.61 0 10-2.61-2.61 2.61 2.61 0 002.61 2.61zM308.64 121.3a2.61 2.61 0 10-2.61-2.61 2.61 2.61 0 002.61 2.61zM319.19 121.3a2.61 2.61 0 10-2.61-2.61 2.61 2.61 0 002.61 2.61zM329.74 121.3a2.61 2.61 0 10-2.61-2.61 2.61 2.61 0 002.61 2.61zM340.3 121.3a2.61 2.61 0 10-2.62-2.61 2.61 2.61 0 002.62 2.61zM350.85 121.3a2.61 2.61 0 10-2.61-2.61 2.61 2.61 0 002.61 2.61zM361.4 121.3a2.61 2.61 0 10-2.61-2.61 2.61 2.61 0 002.61 2.61zM372 121.3a2.61 2.61 0 10-2.62-2.61 2.61 2.61 0 002.62 2.61zM382.51 121.3a2.61 2.61 0 10-2.61-2.61 2.61 2.61 0 002.61 2.61zM393.06 121.3a2.61 2.61 0 10-2.61-2.61 2.61 2.61 0 002.61 2.61zM403.61 121.3a2.61 2.61 0 10-2.61-2.61 2.61 2.61 0 002.61 2.61zM414.16 121.3a2.61 2.61 0 10-2.61-2.61 2.61 2.61 0 002.61 2.61zM424.72 121.3a2.61 2.61 0 10-2.61-2.61 2.61 2.61 0 002.61 2.61zM435.27 121.3a2.61 2.61 0 10-2.61-2.61 2.61 2.61 0 002.61 2.61zM445.82 121.3a2.61 2.61 0 10-2.61-2.61 2.61 2.61 0 002.61 2.61zM456.38 121.3a2.61 2.61 0 10-2.62-2.61 2.61 2.61 0 002.62 2.61zM466.93 121.3a2.61 2.61 0 10-2.61-2.61 2.61 2.61 0 002.61 2.61zM477.48 121.3a2.61 2.61 0 10-2.61-2.61 2.61 2.61 0 002.61 2.61zM488 121.3a2.61 2.61 0 10-2.61-2.61 2.61 2.61 0 002.61 2.61zM498.59 121.3a2.61 2.61 0 10-2.61-2.61 2.61 2.61 0 002.61 2.61zM509.14 121.3a2.61 2.61 0 10-2.61-2.61 2.61 2.61 0 002.61 2.61zM519.69 121.3a2.61 2.61 0 10-2.61-2.61 2.61 2.61 0 002.61 2.61zM530.24 121.3a2.61 2.61 0 10-2.61-2.61 2.61 2.61 0 002.61 2.61zM540.8 121.3a2.61 2.61 0 10-2.61-2.61 2.61 2.61 0 002.61 2.61zM551.35 121.3a2.61 2.61 0 10-2.61-2.61 2.61 2.61 0 002.61 2.61zM561.9 121.3a2.61 2.61 0 10-2.61-2.61 2.61 2.61 0 002.61 2.61zM572.46 121.3a2.61 2.61 0 10-2.62-2.61 2.61 2.61 0 002.62 2.61zM583 121.3a2.61 2.61 0 10-2.61-2.61 2.61 2.61 0 002.61 2.61zM593.56 121.3a2.61 2.61 0 10-2.61-2.61 2.61 2.61 0 002.61 2.61zM604.11 121.3a2.61 2.61 0 10-2.61-2.61 2.61 2.61 0 002.61 2.61zM34.27 131.86a2.62 2.62 0 10-2.61-2.62 2.61 2.61 0 002.61 2.62zM44.82 131.86a2.62 2.62 0 10-2.61-2.62 2.61 2.61 0 002.61 2.62zM55.38 131.86a2.62 2.62 0 10-2.62-2.62 2.61 2.61 0 002.62 2.62zM65.93 131.86a2.62 2.62 0 10-2.61-2.62 2.61 2.61 0 002.61 2.62zM76.48 131.86a2.62 2.62 0 10-2.61-2.62 2.61 2.61 0 002.61 2.62zM87 131.86a2.62 2.62 0 10-2.61-2.62 2.61 2.61 0 002.61 2.62zM97.59 131.86a2.62 2.62 0 10-2.59-2.62 2.61 2.61 0 002.59 2.62zM108.14 131.86a2.62 2.62 0 10-2.61-2.62 2.61 2.61 0 002.61 2.62zM118.69 131.86a2.62 2.62 0 10-2.61-2.62 2.61 2.61 0 002.61 2.62zM129.24 131.86a2.62 2.62 0 10-2.61-2.62 2.62 2.62 0 002.61 2.62zM139.8 131.86a2.62 2.62 0 10-2.62-2.62 2.61 2.61 0 002.62 2.62zM150.35 131.86a2.62 2.62 0 10-2.61-2.62 2.61 2.61 0 002.61 2.62zM160.9 131.86a2.62 2.62 0 10-2.61-2.62 2.61 2.61 0 002.61 2.62zM171.45 131.86a2.62 2.62 0 10-2.61-2.62 2.62 2.62 0 002.61 2.62zM182 131.86a2.62 2.62 0 10-2.61-2.62 2.61 2.61 0 002.61 2.62zM192.56 131.86a2.62 2.62 0 10-2.61-2.62 2.61 2.61 0 002.61 2.62zM203.11 131.86a2.62 2.62 0 10-2.61-2.62 2.61 2.61 0 002.61 2.62zM213.67 131.86a2.62 2.62 0 10-2.62-2.62 2.61 2.61 0 002.62 2.62zM224.22 131.86a2.62 2.62 0 10-2.61-2.62 2.61 2.61 0 002.61 2.62zM234.77 131.86a2.62 2.62 0 10-2.61-2.62 2.61 2.61 0 002.61 2.62zM245.32 131.86a2.62 2.62 0 10-2.61-2.62 2.61 2.61 0 002.61 2.62zM255.88 131.86a2.62 2.62 0 10-2.62-2.62 2.61 2.61 0 002.62 2.62zM266.43 131.86a2.62 2.62 0 10-2.61-2.62 2.61 2.61 0 002.61 2.62zM277 131.86a2.62 2.62 0 10-2.61-2.62 2.61 2.61 0 002.61 2.62zM287.53 131.86a2.62 2.62 0 10-2.61-2.62 2.62 2.62 0 002.61 2.62zM298.09 131.86a2.62 2.62 0 10-2.61-2.62 2.61 2.61 0 002.61 2.62zM308.64 131.86a2.62 2.62 0 10-2.61-2.62 2.61 2.61 0 002.61 2.62zM319.19 131.86a2.62 2.62 0 10-2.61-2.62 2.61 2.61 0 002.61 2.62zM329.74 131.86a2.62 2.62 0 10-2.61-2.62 2.62 2.62 0 002.61 2.62zM340.3 131.86a2.62 2.62 0 10-2.62-2.62 2.61 2.61 0 002.62 2.62zM350.85 131.86a2.62 2.62 0 10-2.61-2.62 2.61 2.61 0 002.61 2.62zM361.4 131.86a2.62 2.62 0 10-2.61-2.62 2.61 2.61 0 002.61 2.62zM372 131.86a2.62 2.62 0 10-2.62-2.62 2.61 2.61 0 002.62 2.62zM382.51 131.86a2.62 2.62 0 10-2.61-2.62 2.61 2.61 0 002.61 2.62zM393.06 131.86a2.62 2.62 0 10-2.61-2.62 2.61 2.61 0 002.61 2.62zM403.61 131.86a2.62 2.62 0 10-2.61-2.62 2.62 2.62 0 002.61 2.62zM414.16 131.86a2.62 2.62 0 10-2.61-2.62 2.62 2.62 0 002.61 2.62zM424.72 131.86a2.62 2.62 0 10-2.61-2.62 2.61 2.61 0 002.61 2.62zM435.27 131.86a2.62 2.62 0 10-2.61-2.62 2.61 2.61 0 002.61 2.62zM445.82 131.86a2.62 2.62 0 10-2.61-2.62 2.61 2.61 0 002.61 2.62zM456.38 131.86a2.62 2.62 0 10-2.62-2.62 2.61 2.61 0 002.62 2.62zM466.93 131.86a2.62 2.62 0 10-2.61-2.62 2.61 2.61 0 002.61 2.62zM477.48 131.86a2.62 2.62 0 10-2.61-2.62 2.61 2.61 0 002.61 2.62zM488 131.86a2.62 2.62 0 10-2.61-2.62 2.62 2.62 0 002.61 2.62zM498.59 131.86a2.62 2.62 0 10-2.61-2.62 2.61 2.61 0 002.61 2.62zM509.14 131.86a2.62 2.62 0 10-2.61-2.62 2.61 2.61 0 002.61 2.62zM519.69 131.86a2.62 2.62 0 10-2.61-2.62 2.61 2.61 0 002.61 2.62zM530.24 131.86a2.62 2.62 0 10-2.61-2.62 2.62 2.62 0 002.61 2.62zM540.8 131.86a2.62 2.62 0 10-2.61-2.62 2.61 2.61 0 002.61 2.62zM551.35 131.86a2.62 2.62 0 10-2.61-2.62 2.61 2.61 0 002.61 2.62zM561.9 131.86a2.62 2.62 0 10-2.61-2.62 2.61 2.61 0 002.61 2.62zM572.46 131.86a2.62 2.62 0 10-2.62-2.62 2.61 2.61 0 002.62 2.62zM583 131.86a2.62 2.62 0 10-2.61-2.62 2.61 2.61 0 002.61 2.62zM593.56 131.86a2.62 2.62 0 10-2.61-2.62 2.61 2.61 0 002.61 2.62zM604.11 131.86a2.62 2.62 0 10-2.61-2.62 2.62 2.62 0 002.61 2.62zM23.72 142.41a2.62 2.62 0 10-2.61-2.61 2.61 2.61 0 002.61 2.61zM34.27 142.41a2.62 2.62 0 10-2.61-2.61 2.61 2.61 0 002.61 2.61zM44.82 142.41a2.62 2.62 0 10-2.61-2.61 2.61 2.61 0 002.61 2.61zM55.38 142.41a2.62 2.62 0 10-2.62-2.61 2.61 2.61 0 002.62 2.61z"/><circle cx="65.93" cy="139.8" r="2.61"/><path d="M76.48 142.41a2.62 2.62 0 10-2.61-2.61 2.61 2.61 0 002.61 2.61zM87 142.41a2.62 2.62 0 10-2.61-2.61 2.61 2.61 0 002.61 2.61zM97.59 142.41A2.62 2.62 0 1095 139.8a2.61 2.61 0 002.59 2.61zM108.14 142.41a2.62 2.62 0 10-2.61-2.61 2.61 2.61 0 002.61 2.61zM118.69 142.41a2.62 2.62 0 10-2.61-2.61 2.61 2.61 0 002.61 2.61z"/><circle cx="129.24" cy="139.8" r="2.61"/><path d="M139.8 142.41a2.62 2.62 0 10-2.62-2.61 2.61 2.61 0 002.62 2.61z"/><circle cx="150.35" cy="139.8" r="2.61"/><circle cx="160.9" cy="139.8" r="2.61"/><path d="M171.45 142.41a2.62 2.62 0 10-2.61-2.61 2.61 2.61 0 002.61 2.61zM182 142.41a2.62 2.62 0 10-2.61-2.61 2.61 2.61 0 002.61 2.61zM192.56 142.41a2.62 2.62 0 10-2.56-2.61 2.61 2.61 0 002.56 2.61z"/><circle cx="203.11" cy="139.8" r="2.61"/><circle cx="213.67" cy="139.8" r="2.61"/><path d="M224.22 142.41a2.62 2.62 0 10-2.61-2.61 2.61 2.61 0 002.61 2.61zM234.77 142.41a2.62 2.62 0 10-2.61-2.61 2.61 2.61 0 002.61 2.61zM245.32 142.41a2.62 2.62 0 10-2.61-2.61 2.61 2.61 0 002.61 2.61zM255.88 142.41a2.62 2.62 0 10-2.62-2.61 2.61 2.61 0 002.62 2.61zM266.43 142.41a2.62 2.62 0 10-2.61-2.61 2.61 2.61 0 002.61 2.61zM277 142.41a2.62 2.62 0 10-2.61-2.61 2.61 2.61 0 002.61 2.61zM287.53 142.41a2.62 2.62 0 10-2.61-2.61 2.61 2.61 0 002.61 2.61zM298.09 142.41a2.62 2.62 0 10-2.61-2.61 2.61 2.61 0 002.61 2.61zM308.64 142.41a2.62 2.62 0 10-2.64-2.61 2.61 2.61 0 002.64 2.61zM319.19 142.41a2.62 2.62 0 10-2.61-2.61 2.61 2.61 0 002.61 2.61zM329.74 142.41a2.62 2.62 0 10-2.61-2.61 2.61 2.61 0 002.61 2.61zM340.3 142.41a2.62 2.62 0 10-2.62-2.61 2.61 2.61 0 002.62 2.61zM350.85 142.41a2.62 2.62 0 10-2.61-2.61 2.61 2.61 0 002.61 2.61zM361.4 142.41a2.62 2.62 0 10-2.61-2.61 2.61 2.61 0 002.61 2.61zM372 142.41a2.62 2.62 0 10-2.62-2.61 2.61 2.61 0 002.62 2.61zM382.51 142.41a2.62 2.62 0 10-2.61-2.61 2.61 2.61 0 002.61 2.61zM393.06 142.41a2.62 2.62 0 10-2.61-2.61 2.61 2.61 0 002.61 2.61zM403.61 142.41a2.62 2.62 0 10-2.61-2.61 2.61 2.61 0 002.61 2.61zM414.16 142.41a2.62 2.62 0 10-2.61-2.61 2.61 2.61 0 002.61 2.61zM424.72 142.41a2.62 2.62 0 10-2.61-2.61 2.61 2.61 0 002.61 2.61z"/><circle cx="435.27" cy="139.8" r="2.61"/><circle cx="445.82" cy="139.8" r="2.61" transform="rotate(-89.84 445.813 139.799)"/><path d="M456.38 142.41a2.62 2.62 0 10-2.62-2.61 2.61 2.61 0 002.62 2.61z"/><circle cx="466.93" cy="139.8" r="2.61"/><path d="M477.48 142.41a2.62 2.62 0 10-2.61-2.61 2.61 2.61 0 002.61 2.61zM488 142.41a2.62 2.62 0 10-2.61-2.61 2.61 2.61 0 002.61 2.61zM498.59 142.41a2.62 2.62 0 10-2.59-2.61 2.61 2.61 0 002.59 2.61zM509.14 142.41a2.62 2.62 0 10-2.61-2.61 2.61 2.61 0 002.61 2.61zM519.69 142.41a2.62 2.62 0 10-2.61-2.61 2.61 2.61 0 002.61 2.61zM530.24 142.41a2.62 2.62 0 10-2.61-2.61 2.61 2.61 0 002.61 2.61zM540.8 142.41a2.62 2.62 0 10-2.61-2.61 2.61 2.61 0 002.61 2.61zM551.35 142.41a2.62 2.62 0 10-2.61-2.61 2.61 2.61 0 002.61 2.61z"/><circle cx="561.9" cy="139.8" r="2.61"/><path d="M572.46 142.41a2.62 2.62 0 10-2.62-2.61 2.61 2.61 0 002.62 2.61zM583 142.41a2.62 2.62 0 10-2.61-2.61 2.61 2.61 0 002.61 2.61z"/><circle cx="593.56" cy="139.8" r="2.61"/><path d="M604.11 142.41a2.62 2.62 0 10-2.61-2.61 2.61 2.61 0 002.61 2.61zM23.72 153a2.61 2.61 0 10-2.61-2.61 2.61 2.61 0 002.61 2.61zM34.27 153a2.61 2.61 0 10-2.61-2.61 2.61 2.61 0 002.61 2.61zM44.82 153a2.61 2.61 0 10-2.61-2.61 2.61 2.61 0 002.61 2.61zM55.38 153a2.61 2.61 0 10-2.62-2.61 2.61 2.61 0 002.62 2.61zM65.93 153a2.61 2.61 0 10-2.61-2.61 2.61 2.61 0 002.61 2.61zM76.48 153a2.61 2.61 0 10-2.61-2.61 2.61 2.61 0 002.61 2.61zM87 153a2.61 2.61 0 10-2.61-2.61A2.61 2.61 0 0087 153zM97.59 153a2.61 2.61 0 10-2.59-2.65 2.61 2.61 0 002.59 2.65zM108.14 153a2.61 2.61 0 10-2.61-2.61 2.61 2.61 0 002.61 2.61zM118.69 153a2.61 2.61 0 10-2.61-2.61 2.61 2.61 0 002.61 2.61zM129.24 153a2.61 2.61 0 10-2.61-2.61 2.61 2.61 0 002.61 2.61zM139.8 153a2.61 2.61 0 10-2.62-2.61 2.61 2.61 0 002.62 2.61zM150.35 153a2.61 2.61 0 10-2.61-2.61 2.61 2.61 0 002.61 2.61zM160.9 153a2.61 2.61 0 10-2.61-2.61 2.61 2.61 0 002.61 2.61zM171.45 153a2.61 2.61 0 10-2.61-2.61 2.61 2.61 0 002.61 2.61zM182 153a2.61 2.61 0 10-2.61-2.61A2.61 2.61 0 00182 153zM192.56 153a2.61 2.61 0 10-2.61-2.61 2.61 2.61 0 002.61 2.61zM203.11 153a2.61 2.61 0 10-2.61-2.61 2.61 2.61 0 002.61 2.61zM213.67 153a2.61 2.61 0 10-2.62-2.61 2.61 2.61 0 002.62 2.61zM224.22 153a2.61 2.61 0 10-2.61-2.61 2.61 2.61 0 002.61 2.61zM234.77 153a2.61 2.61 0 10-2.61-2.61 2.61 2.61 0 002.61 2.61zM245.32 153a2.61 2.61 0 10-2.61-2.61 2.61 2.61 0 002.61 2.61zM255.88 153a2.61 2.61 0 10-2.62-2.61 2.61 2.61 0 002.62 2.61zM266.43 153a2.61 2.61 0 10-2.61-2.61 2.61 2.61 0 002.61 2.61zM277 153a2.61 2.61 0 10-2.61-2.61A2.61 2.61 0 00277 153zM287.53 153a2.61 2.61 0 10-2.61-2.61 2.61 2.61 0 002.61 2.61zM298.09 153a2.61 2.61 0 10-2.61-2.61 2.61 2.61 0 002.61 2.61zM308.64 153a2.61 2.61 0 10-2.61-2.61 2.61 2.61 0 002.61 2.61zM319.19 153a2.61 2.61 0 10-2.61-2.61 2.61 2.61 0 002.61 2.61zM329.74 153a2.61 2.61 0 10-2.61-2.61 2.61 2.61 0 002.61 2.61zM340.3 153a2.61 2.61 0 10-2.62-2.61 2.61 2.61 0 002.62 2.61zM350.85 153a2.61 2.61 0 10-2.61-2.61 2.61 2.61 0 002.61 2.61zM361.4 153a2.61 2.61 0 10-2.61-2.61 2.61 2.61 0 002.61 2.61zM372 153a2.61 2.61 0 10-2.62-2.61A2.61 2.61 0 00372 153zM382.51 153a2.61 2.61 0 10-2.61-2.61 2.61 2.61 0 002.61 2.61zM393.06 153a2.61 2.61 0 10-2.61-2.61 2.61 2.61 0 002.61 2.61zM403.61 153a2.61 2.61 0 10-2.61-2.61 2.61 2.61 0 002.61 2.61zM414.16 153a2.61 2.61 0 10-2.61-2.61 2.61 2.61 0 002.61 2.61zM424.72 153a2.61 2.61 0 10-2.61-2.61 2.61 2.61 0 002.61 2.61zM435.27 153a2.61 2.61 0 10-2.61-2.61 2.61 2.61 0 002.61 2.61zM445.82 153a2.61 2.61 0 10-2.61-2.61 2.61 2.61 0 002.61 2.61zM456.38 153a2.61 2.61 0 10-2.62-2.61 2.61 2.61 0 002.62 2.61zM466.93 153a2.61 2.61 0 10-2.61-2.61 2.61 2.61 0 002.61 2.61zM477.48 153a2.61 2.61 0 10-2.61-2.61 2.61 2.61 0 002.61 2.61zM488 153a2.61 2.61 0 10-2.61-2.61A2.61 2.61 0 00488 153zM498.59 153a2.61 2.61 0 10-2.61-2.61 2.61 2.61 0 002.61 2.61zM509.14 153a2.61 2.61 0 10-2.61-2.61 2.61 2.61 0 002.61 2.61zM519.69 153a2.61 2.61 0 10-2.61-2.61 2.61 2.61 0 002.61 2.61zM530.24 153a2.61 2.61 0 10-2.61-2.61 2.61 2.61 0 002.61 2.61zM540.8 153a2.61 2.61 0 10-2.61-2.61 2.61 2.61 0 002.61 2.61zM551.35 153a2.61 2.61 0 10-2.61-2.61 2.61 2.61 0 002.61 2.61zM561.9 153a2.61 2.61 0 10-2.61-2.61 2.61 2.61 0 002.61 2.61zM572.46 153a2.61 2.61 0 10-2.62-2.61 2.61 2.61 0 002.62 2.61zM583 153a2.61 2.61 0 10-2.61-2.61A2.61 2.61 0 00583 153zM593.56 153a2.61 2.61 0 10-2.61-2.61 2.61 2.61 0 002.61 2.61zM2.61 163.51A2.61 2.61 0 100 160.9a2.61 2.61 0 002.61 2.61zM13.16 163.51a2.61 2.61 0 10-2.61-2.61 2.61 2.61 0 002.61 2.61zM23.72 163.51a2.61 2.61 0 10-2.61-2.61 2.61 2.61 0 002.61 2.61zM34.27 163.51a2.61 2.61 0 10-2.61-2.61 2.61 2.61 0 002.61 2.61zM44.82 163.51a2.61 2.61 0 10-2.61-2.61 2.61 2.61 0 002.61 2.61zM55.38 163.51a2.61 2.61 0 10-2.62-2.61 2.61 2.61 0 002.62 2.61zM65.93 163.51a2.61 2.61 0 10-2.61-2.61 2.61 2.61 0 002.61 2.61zM76.48 163.51a2.61 2.61 0 10-2.61-2.61 2.61 2.61 0 002.61 2.61zM87 163.51a2.61 2.61 0 10-2.61-2.61 2.61 2.61 0 002.61 2.61zM97.59 163.51A2.61 2.61 0 1095 160.9a2.61 2.61 0 002.59 2.61zM108.14 163.51a2.61 2.61 0 10-2.61-2.61 2.61 2.61 0 002.61 2.61zM118.69 163.51a2.61 2.61 0 10-2.61-2.61 2.61 2.61 0 002.61 2.61zM129.24 163.51a2.61 2.61 0 10-2.61-2.61 2.61 2.61 0 002.61 2.61zM139.8 163.51a2.61 2.61 0 10-2.62-2.61 2.61 2.61 0 002.62 2.61zM150.35 163.51a2.61 2.61 0 10-2.61-2.61 2.61 2.61 0 002.61 2.61zM160.9 163.51a2.61 2.61 0 10-2.61-2.61 2.61 2.61 0 002.61 2.61zM171.45 163.51a2.61 2.61 0 10-2.61-2.61 2.61 2.61 0 002.61 2.61zM182 163.51a2.61 2.61 0 10-2.61-2.61 2.61 2.61 0 002.61 2.61zM192.56 163.51a2.61 2.61 0 10-2.56-2.61 2.61 2.61 0 002.56 2.61zM203.11 163.51a2.61 2.61 0 10-2.61-2.61 2.61 2.61 0 002.61 2.61zM213.67 163.51a2.61 2.61 0 10-2.62-2.61 2.61 2.61 0 002.62 2.61zM224.22 163.51a2.61 2.61 0 10-2.61-2.61 2.61 2.61 0 002.61 2.61zM234.77 163.51a2.61 2.61 0 10-2.61-2.61 2.61 2.61 0 002.61 2.61zM245.32 163.51a2.61 2.61 0 10-2.61-2.61 2.61 2.61 0 002.61 2.61zM255.88 163.51a2.61 2.61 0 10-2.62-2.61 2.61 2.61 0 002.62 2.61zM266.43 163.51a2.61 2.61 0 10-2.61-2.61 2.61 2.61 0 002.61 2.61zM277 163.51a2.61 2.61 0 10-2.61-2.61 2.61 2.61 0 002.61 2.61zM287.53 163.51a2.61 2.61 0 10-2.61-2.61 2.61 2.61 0 002.61 2.61zM298.09 163.51a2.61 2.61 0 10-2.61-2.61 2.61 2.61 0 002.61 2.61zM308.64 163.51a2.61 2.61 0 10-2.64-2.61 2.61 2.61 0 002.64 2.61zM319.19 163.51a2.61 2.61 0 10-2.61-2.61 2.61 2.61 0 002.61 2.61zM329.74 163.51a2.61 2.61 0 10-2.61-2.61 2.61 2.61 0 002.61 2.61zM340.3 163.51a2.61 2.61 0 10-2.62-2.61 2.61 2.61 0 002.62 2.61zM350.85 163.51a2.61 2.61 0 10-2.61-2.61 2.61 2.61 0 002.61 2.61zM361.4 163.51a2.61 2.61 0 10-2.61-2.61 2.61 2.61 0 002.61 2.61zM372 163.51a2.61 2.61 0 10-2.62-2.61 2.61 2.61 0 002.62 2.61zM382.51 163.51a2.61 2.61 0 10-2.61-2.61 2.61 2.61 0 002.61 2.61zM393.06 163.51a2.61 2.61 0 10-2.61-2.61 2.61 2.61 0 002.61 2.61zM403.61 163.51a2.61 2.61 0 10-2.61-2.61 2.61 2.61 0 002.61 2.61zM414.16 163.51a2.61 2.61 0 10-2.61-2.61 2.61 2.61 0 002.61 2.61zM424.72 163.51a2.61 2.61 0 10-2.61-2.61 2.61 2.61 0 002.61 2.61zM435.27 163.51a2.61 2.61 0 10-2.61-2.61 2.61 2.61 0 002.61 2.61zM445.82 163.51a2.61 2.61 0 10-2.61-2.61 2.61 2.61 0 002.61 2.61zM456.38 163.51a2.61 2.61 0 10-2.62-2.61 2.61 2.61 0 002.62 2.61zM466.93 163.51a2.61 2.61 0 10-2.61-2.61 2.61 2.61 0 002.61 2.61zM477.48 163.51a2.61 2.61 0 10-2.61-2.61 2.61 2.61 0 002.61 2.61zM488 163.51a2.61 2.61 0 10-2.61-2.61 2.61 2.61 0 002.61 2.61zM498.59 163.51a2.61 2.61 0 10-2.59-2.61 2.61 2.61 0 002.59 2.61zM509.14 163.51a2.61 2.61 0 10-2.61-2.61 2.61 2.61 0 002.61 2.61zM519.69 163.51a2.61 2.61 0 10-2.61-2.61 2.61 2.61 0 002.61 2.61zM530.24 163.51a2.61 2.61 0 10-2.61-2.61 2.61 2.61 0 002.61 2.61zM540.8 163.51a2.61 2.61 0 10-2.61-2.61 2.61 2.61 0 002.61 2.61zM551.35 163.51a2.61 2.61 0 10-2.61-2.61 2.61 2.61 0 002.61 2.61zM561.9 163.51a2.61 2.61 0 10-2.61-2.61 2.61 2.61 0 002.61 2.61zM572.46 163.51a2.61 2.61 0 10-2.62-2.61 2.61 2.61 0 002.62 2.61zM583 163.51a2.61 2.61 0 10-2.61-2.61 2.61 2.61 0 002.61 2.61zM593.56 163.51a2.61 2.61 0 10-2.56-2.61 2.61 2.61 0 002.56 2.61zM604.11 163.51a2.61 2.61 0 10-2.61-2.61 2.61 2.61 0 002.61 2.61zM2.61 174.07A2.62 2.62 0 100 171.45a2.61 2.61 0 002.61 2.62zM13.16 174.07a2.62 2.62 0 10-2.61-2.62 2.62 2.62 0 002.61 2.62zM23.72 174.07a2.62 2.62 0 10-2.61-2.62 2.61 2.61 0 002.61 2.62zM34.27 174.07a2.62 2.62 0 10-2.61-2.62 2.61 2.61 0 002.61 2.62zM44.82 174.07a2.62 2.62 0 10-2.61-2.62 2.61 2.61 0 002.61 2.62zM55.38 174.07a2.62 2.62 0 10-2.62-2.62 2.61 2.61 0 002.62 2.62zM65.93 174.07a2.62 2.62 0 10-2.61-2.62 2.61 2.61 0 002.61 2.62zM76.48 174.07a2.62 2.62 0 10-2.61-2.62 2.61 2.61 0 002.61 2.62zM87 174.07a2.62 2.62 0 10-2.61-2.62 2.61 2.61 0 002.61 2.62zM97.59 174.07a2.62 2.62 0 10-2.59-2.62 2.61 2.61 0 002.59 2.62zM108.14 174.07a2.62 2.62 0 10-2.61-2.62 2.61 2.61 0 002.61 2.62zM118.69 174.07a2.62 2.62 0 10-2.61-2.62 2.61 2.61 0 002.61 2.62zM129.24 174.07a2.62 2.62 0 10-2.61-2.62 2.62 2.62 0 002.61 2.62zM139.8 174.07a2.62 2.62 0 10-2.62-2.62 2.61 2.61 0 002.62 2.62zM150.35 174.07a2.62 2.62 0 10-2.61-2.62 2.61 2.61 0 002.61 2.62zM160.9 174.07a2.62 2.62 0 10-2.61-2.62 2.61 2.61 0 002.61 2.62zM171.45 174.07a2.62 2.62 0 10-2.61-2.62 2.62 2.62 0 002.61 2.62zM182 174.07a2.62 2.62 0 10-2.61-2.62 2.61 2.61 0 002.61 2.62zM192.56 174.07a2.62 2.62 0 10-2.61-2.62 2.61 2.61 0 002.61 2.62zM203.11 174.07a2.62 2.62 0 10-2.61-2.62 2.61 2.61 0 002.61 2.62zM213.67 174.07a2.62 2.62 0 10-2.62-2.62 2.61 2.61 0 002.62 2.62zM224.22 174.07a2.62 2.62 0 10-2.61-2.62 2.61 2.61 0 002.61 2.62zM234.77 174.07a2.62 2.62 0 10-2.61-2.62 2.61 2.61 0 002.61 2.62zM245.32 174.07a2.62 2.62 0 10-2.61-2.62 2.61 2.61 0 002.61 2.62zM255.88 174.07a2.62 2.62 0 10-2.62-2.62 2.61 2.61 0 002.62 2.62zM266.43 174.07a2.62 2.62 0 10-2.61-2.62 2.61 2.61 0 002.61 2.62zM277 174.07a2.62 2.62 0 10-2.61-2.62 2.61 2.61 0 002.61 2.62zM287.53 174.07a2.62 2.62 0 10-2.61-2.62 2.62 2.62 0 002.61 2.62zM298.09 174.07a2.62 2.62 0 10-2.61-2.62 2.61 2.61 0 002.61 2.62zM308.64 174.07a2.62 2.62 0 10-2.61-2.62 2.61 2.61 0 002.61 2.62zM319.19 174.07a2.62 2.62 0 10-2.61-2.62 2.61 2.61 0 002.61 2.62zM329.74 174.07a2.62 2.62 0 10-2.61-2.62 2.62 2.62 0 002.61 2.62zM340.3 174.07a2.62 2.62 0 10-2.62-2.62 2.61 2.61 0 002.62 2.62zM350.85 174.07a2.62 2.62 0 10-2.61-2.62 2.61 2.61 0 002.61 2.62zM361.4 174.07a2.62 2.62 0 10-2.61-2.62 2.61 2.61 0 002.61 2.62zM372 174.07a2.62 2.62 0 10-2.62-2.62 2.61 2.61 0 002.62 2.62zM382.51 174.07a2.62 2.62 0 10-2.61-2.62 2.61 2.61 0 002.61 2.62zM393.06 174.07a2.62 2.62 0 10-2.61-2.62 2.61 2.61 0 002.61 2.62zM403.61 174.07a2.62 2.62 0 10-2.61-2.62 2.62 2.62 0 002.61 2.62zM414.16 174.07a2.62 2.62 0 10-2.61-2.62 2.62 2.62 0 002.61 2.62zM424.72 174.07a2.62 2.62 0 10-2.61-2.62 2.61 2.61 0 002.61 2.62zM435.27 174.07a2.62 2.62 0 10-2.61-2.62 2.61 2.61 0 002.61 2.62zM445.82 174.07a2.62 2.62 0 10-2.61-2.62 2.61 2.61 0 002.61 2.62zM456.38 174.07a2.62 2.62 0 10-2.62-2.62 2.61 2.61 0 002.62 2.62zM466.93 174.07a2.62 2.62 0 10-2.61-2.62 2.61 2.61 0 002.61 2.62zM477.48 174.07a2.62 2.62 0 10-2.61-2.62 2.61 2.61 0 002.61 2.62zM488 174.07a2.62 2.62 0 10-2.61-2.62 2.62 2.62 0 002.61 2.62zM498.59 174.07a2.62 2.62 0 10-2.61-2.62 2.61 2.61 0 002.61 2.62zM509.14 174.07a2.62 2.62 0 10-2.61-2.62 2.61 2.61 0 002.61 2.62zM519.69 174.07a2.62 2.62 0 10-2.61-2.62 2.61 2.61 0 002.61 2.62zM530.24 174.07a2.62 2.62 0 10-2.61-2.62 2.62 2.62 0 002.61 2.62zM540.8 174.07a2.62 2.62 0 10-2.61-2.62 2.61 2.61 0 002.61 2.62zM551.35 174.07a2.62 2.62 0 10-2.61-2.62 2.61 2.61 0 002.61 2.62zM561.9 174.07a2.62 2.62 0 10-2.61-2.62 2.61 2.61 0 002.61 2.62zM572.46 174.07a2.62 2.62 0 10-2.62-2.62 2.61 2.61 0 002.62 2.62zM583 174.07a2.62 2.62 0 10-2.61-2.62 2.61 2.61 0 002.61 2.62zM593.56 174.07a2.62 2.62 0 10-2.61-2.62 2.61 2.61 0 002.61 2.62zM604.11 174.07a2.62 2.62 0 10-2.61-2.62 2.62 2.62 0 002.61 2.62zM2.61 184.62A2.61 2.61 0 100 182a2.61 2.61 0 002.61 2.62zM13.16 184.62a2.61 2.61 0 10-2.61-2.62 2.61 2.61 0 002.61 2.62zM23.72 184.62a2.61 2.61 0 10-2.61-2.62 2.61 2.61 0 002.61 2.62zM34.27 184.62a2.61 2.61 0 10-2.61-2.62 2.61 2.61 0 002.61 2.62zM44.82 184.62a2.61 2.61 0 10-2.61-2.62 2.61 2.61 0 002.61 2.62zM55.38 184.62a2.61 2.61 0 10-2.62-2.62 2.61 2.61 0 002.62 2.62zM65.93 184.62a2.61 2.61 0 10-2.61-2.62 2.61 2.61 0 002.61 2.62zM76.48 184.62a2.61 2.61 0 10-2.61-2.62 2.61 2.61 0 002.61 2.62zM87 184.62a2.61 2.61 0 10-2.58-2.62 2.61 2.61 0 002.58 2.62zM97.59 184.62A2.61 2.61 0 1095 182a2.61 2.61 0 002.59 2.62zM108.14 184.62a2.61 2.61 0 10-2.61-2.61 2.61 2.61 0 002.61 2.61zM118.69 184.62a2.61 2.61 0 10-2.61-2.61 2.61 2.61 0 002.61 2.61zM129.24 184.62a2.61 2.61 0 10-2.61-2.61 2.61 2.61 0 002.61 2.61zM139.8 184.62a2.61 2.61 0 10-2.62-2.61 2.61 2.61 0 002.62 2.61zM150.35 184.62a2.61 2.61 0 10-2.61-2.61 2.61 2.61 0 002.61 2.61zM160.9 184.62a2.61 2.61 0 10-2.61-2.61 2.61 2.61 0 002.61 2.61zM171.45 184.62a2.61 2.61 0 10-2.61-2.61 2.61 2.61 0 002.61 2.61zM182 184.62a2.61 2.61 0 10-2.6-2.62 2.61 2.61 0 002.6 2.62zM192.56 184.62A2.61 2.61 0 10190 182a2.61 2.61 0 002.56 2.62zM203.11 184.62a2.61 2.61 0 10-2.61-2.62 2.61 2.61 0 002.61 2.62zM213.67 184.62a2.61 2.61 0 10-2.62-2.61 2.61 2.61 0 002.62 2.61zM224.22 184.62a2.61 2.61 0 10-2.61-2.61 2.61 2.61 0 002.61 2.61zM234.77 184.62a2.61 2.61 0 10-2.61-2.61 2.61 2.61 0 002.61 2.61zM245.32 184.62a2.61 2.61 0 10-2.61-2.61 2.61 2.61 0 002.61 2.61zM255.88 184.62a2.61 2.61 0 10-2.62-2.61 2.61 2.61 0 002.62 2.61zM266.43 184.62a2.61 2.61 0 10-2.61-2.61 2.61 2.61 0 002.61 2.61zM277 184.62a2.61 2.61 0 10-2.61-2.61 2.61 2.61 0 002.61 2.61zM287.53 184.62a2.61 2.61 0 10-2.61-2.61 2.61 2.61 0 002.61 2.61zM298.09 184.62a2.61 2.61 0 10-2.61-2.61 2.61 2.61 0 002.61 2.61zM308.64 184.62A2.61 2.61 0 10306 182a2.61 2.61 0 002.64 2.62zM319.19 184.62a2.61 2.61 0 10-2.61-2.61 2.61 2.61 0 002.61 2.61zM329.74 184.62a2.61 2.61 0 10-2.61-2.61 2.61 2.61 0 002.61 2.61zM340.3 184.62a2.61 2.61 0 10-2.62-2.61 2.61 2.61 0 002.62 2.61zM350.85 184.62a2.61 2.61 0 10-2.61-2.61 2.61 2.61 0 002.61 2.61zM361.4 184.62a2.61 2.61 0 10-2.61-2.61 2.61 2.61 0 002.61 2.61zM372 184.62a2.61 2.61 0 10-2.62-2.61 2.61 2.61 0 002.62 2.61zM382.51 184.62a2.61 2.61 0 10-2.61-2.62 2.61 2.61 0 002.61 2.62zM393.06 184.62a2.61 2.61 0 10-2.61-2.61 2.61 2.61 0 002.61 2.61zM403.61 184.62A2.61 2.61 0 10401 182a2.61 2.61 0 002.61 2.62zM414.16 184.62a2.61 2.61 0 10-2.61-2.61 2.61 2.61 0 002.61 2.61zM424.72 184.62a2.61 2.61 0 10-2.61-2.61 2.61 2.61 0 002.61 2.61zM435.27 184.62a2.61 2.61 0 10-2.61-2.61 2.61 2.61 0 002.61 2.61zM445.82 184.62a2.61 2.61 0 10-2.61-2.61 2.61 2.61 0 002.61 2.61zM456.38 184.62a2.61 2.61 0 10-2.62-2.61 2.61 2.61 0 002.62 2.61zM466.93 184.62a2.61 2.61 0 10-2.61-2.61 2.61 2.61 0 002.61 2.61zM477.48 184.62a2.61 2.61 0 10-2.61-2.61 2.61 2.61 0 002.61 2.61zM488 184.62a2.61 2.61 0 10-2.61-2.61 2.61 2.61 0 002.61 2.61zM498.59 184.62A2.61 2.61 0 10496 182a2.61 2.61 0 002.59 2.62zM509.14 184.62a2.61 2.61 0 10-2.61-2.61 2.61 2.61 0 002.61 2.61zM519.69 184.62a2.61 2.61 0 10-2.61-2.61 2.61 2.61 0 002.61 2.61zM530.24 184.62a2.61 2.61 0 10-2.61-2.61 2.61 2.61 0 002.61 2.61zM540.8 184.62a2.61 2.61 0 10-2.61-2.61 2.61 2.61 0 002.61 2.61zM551.35 184.62a2.61 2.61 0 10-2.61-2.61 2.61 2.61 0 002.61 2.61zM561.9 184.62a2.61 2.61 0 10-2.61-2.61 2.61 2.61 0 002.61 2.61zM572.46 184.62a2.61 2.61 0 10-2.62-2.61 2.61 2.61 0 002.62 2.61zM583 184.62a2.61 2.61 0 10-2.6-2.62 2.61 2.61 0 002.6 2.62zM593.56 184.62A2.61 2.61 0 10591 182a2.61 2.61 0 002.56 2.62zM604.11 184.62a2.61 2.61 0 10-2.61-2.62 2.61 2.61 0 002.61 2.62zM2.61 195.17A2.61 2.61 0 100 192.56a2.61 2.61 0 002.61 2.61zM13.16 195.17a2.61 2.61 0 10-2.61-2.61 2.61 2.61 0 002.61 2.61zM23.72 195.17a2.61 2.61 0 10-2.61-2.61 2.61 2.61 0 002.61 2.61zM34.27 195.17a2.61 2.61 0 10-2.61-2.61 2.61 2.61 0 002.61 2.61zM44.82 195.17a2.61 2.61 0 10-2.61-2.61 2.61 2.61 0 002.61 2.61zM55.38 195.17a2.61 2.61 0 10-2.62-2.61 2.61 2.61 0 002.62 2.61zM65.93 195.17a2.61 2.61 0 10-2.61-2.61 2.61 2.61 0 002.61 2.61zM76.48 195.17a2.61 2.61 0 10-2.61-2.61 2.61 2.61 0 002.61 2.61zM87 195.17a2.61 2.61 0 10-2.61-2.61 2.61 2.61 0 002.61 2.61zM97.59 195.17a2.61 2.61 0 10-2.59-2.61 2.61 2.61 0 002.59 2.61zM108.14 195.17a2.61 2.61 0 10-2.61-2.61 2.61 2.61 0 002.61 2.61zM118.69 195.17a2.61 2.61 0 10-2.61-2.61 2.61 2.61 0 002.61 2.61zM129.24 195.17a2.61 2.61 0 10-2.61-2.61 2.61 2.61 0 002.61 2.61zM139.8 195.17a2.61 2.61 0 10-2.62-2.61 2.61 2.61 0 002.62 2.61zM150.35 195.17a2.61 2.61 0 10-2.61-2.61 2.61 2.61 0 002.61 2.61zM160.9 195.17a2.61 2.61 0 10-2.61-2.61 2.61 2.61 0 002.61 2.61zM203.11 195.17a2.61 2.61 0 10-2.61-2.61 2.61 2.61 0 002.61 2.61zM213.67 195.17a2.61 2.61 0 10-2.62-2.61 2.61 2.61 0 002.62 2.61zM224.22 195.17a2.61 2.61 0 10-2.61-2.61 2.61 2.61 0 002.61 2.61zM234.77 195.17a2.61 2.61 0 10-2.61-2.61 2.61 2.61 0 002.61 2.61zM245.32 195.17a2.61 2.61 0 10-2.61-2.61 2.61 2.61 0 002.61 2.61zM255.88 195.17a2.61 2.61 0 10-2.62-2.61 2.61 2.61 0 002.62 2.61zM266.43 195.17a2.61 2.61 0 10-2.61-2.61 2.61 2.61 0 002.61 2.61zM277 195.17a2.61 2.61 0 10-2.61-2.61 2.61 2.61 0 002.61 2.61zM287.53 195.17a2.61 2.61 0 10-2.61-2.61 2.61 2.61 0 002.61 2.61zM298.09 195.17a2.61 2.61 0 10-2.61-2.61 2.61 2.61 0 002.61 2.61zM308.64 195.17a2.61 2.61 0 10-2.61-2.61 2.61 2.61 0 002.61 2.61zM319.19 195.17a2.61 2.61 0 10-2.61-2.61 2.61 2.61 0 002.61 2.61zM329.74 195.17a2.61 2.61 0 10-2.61-2.61 2.61 2.61 0 002.61 2.61zM340.3 195.17a2.61 2.61 0 10-2.62-2.61 2.61 2.61 0 002.62 2.61zM350.85 195.17a2.61 2.61 0 10-2.61-2.61 2.61 2.61 0 002.61 2.61zM361.4 195.17a2.61 2.61 0 10-2.61-2.61 2.61 2.61 0 002.61 2.61zM372 195.17a2.61 2.61 0 10-2.62-2.61 2.61 2.61 0 002.62 2.61zM382.51 195.17a2.61 2.61 0 10-2.61-2.61 2.61 2.61 0 002.61 2.61zM393.06 195.17a2.61 2.61 0 10-2.61-2.61 2.61 2.61 0 002.61 2.61zM403.61 195.17a2.61 2.61 0 10-2.61-2.61 2.61 2.61 0 002.61 2.61zM414.16 195.17a2.61 2.61 0 10-2.61-2.61 2.61 2.61 0 002.61 2.61zM424.72 195.17a2.61 2.61 0 10-2.61-2.61 2.61 2.61 0 002.61 2.61zM435.27 195.17a2.61 2.61 0 10-2.61-2.61 2.61 2.61 0 002.61 2.61zM445.82 195.17a2.61 2.61 0 10-2.61-2.61 2.61 2.61 0 002.61 2.61zM456.38 195.17a2.61 2.61 0 10-2.62-2.61 2.61 2.61 0 002.62 2.61zM466.93 195.17a2.61 2.61 0 10-2.61-2.61 2.61 2.61 0 002.61 2.61zM477.48 195.17a2.61 2.61 0 10-2.61-2.61 2.61 2.61 0 002.61 2.61zM488 195.17a2.61 2.61 0 10-2.61-2.61 2.61 2.61 0 002.61 2.61zM498.59 195.17a2.61 2.61 0 10-2.61-2.61 2.61 2.61 0 002.61 2.61zM509.14 195.17a2.61 2.61 0 10-2.61-2.61 2.61 2.61 0 002.61 2.61zM519.69 195.17a2.61 2.61 0 10-2.61-2.61 2.61 2.61 0 002.61 2.61zM530.24 195.17a2.61 2.61 0 10-2.61-2.61 2.61 2.61 0 002.61 2.61zM540.8 195.17a2.61 2.61 0 10-2.61-2.61 2.61 2.61 0 002.61 2.61zM551.35 195.17a2.61 2.61 0 10-2.61-2.61 2.61 2.61 0 002.61 2.61zM561.9 195.17a2.61 2.61 0 10-2.61-2.61 2.61 2.61 0 002.61 2.61zM572.46 195.17a2.61 2.61 0 10-2.62-2.61 2.61 2.61 0 002.62 2.61zM583 195.17a2.61 2.61 0 10-2.61-2.61 2.61 2.61 0 002.61 2.61zM593.56 195.17a2.61 2.61 0 10-2.61-2.61 2.61 2.61 0 002.61 2.61zM604.11 195.17a2.61 2.61 0 10-2.61-2.61 2.61 2.61 0 002.61 2.61zM23.72 205.72a2.61 2.61 0 10-2.61-2.61 2.61 2.61 0 002.61 2.61zM34.27 205.72a2.61 2.61 0 10-2.61-2.61 2.61 2.61 0 002.61 2.61zM44.82 205.72a2.61 2.61 0 10-2.61-2.61 2.61 2.61 0 002.61 2.61zM55.38 205.72a2.61 2.61 0 10-2.62-2.61 2.61 2.61 0 002.62 2.61zM65.93 205.72a2.61 2.61 0 10-2.61-2.61 2.61 2.61 0 002.61 2.61zM76.48 205.72a2.61 2.61 0 10-2.61-2.61 2.61 2.61 0 002.61 2.61zM87 205.72a2.61 2.61 0 10-2.61-2.61 2.61 2.61 0 002.61 2.61zM97.59 205.72a2.61 2.61 0 10-2.59-2.61 2.61 2.61 0 002.59 2.61zM108.14 205.72a2.61 2.61 0 10-2.61-2.61 2.61 2.61 0 002.61 2.61zM118.69 205.72a2.61 2.61 0 10-2.61-2.61 2.61 2.61 0 002.61 2.61zM129.24 205.72a2.61 2.61 0 10-2.61-2.61 2.61 2.61 0 002.61 2.61zM139.8 205.72a2.61 2.61 0 10-2.62-2.61 2.61 2.61 0 002.62 2.61zM150.35 205.72a2.61 2.61 0 10-2.61-2.61 2.61 2.61 0 002.61 2.61zM160.9 205.72a2.61 2.61 0 10-2.61-2.61 2.61 2.61 0 002.61 2.61zM234.77 205.72a2.61 2.61 0 10-2.61-2.61 2.61 2.61 0 002.61 2.61zM245.32 205.72a2.61 2.61 0 10-2.61-2.61 2.61 2.61 0 002.61 2.61zM255.88 205.72a2.61 2.61 0 10-2.62-2.61 2.61 2.61 0 002.62 2.61zM266.43 205.72a2.61 2.61 0 10-2.61-2.61 2.61 2.61 0 002.61 2.61zM277 205.72a2.61 2.61 0 10-2.61-2.61 2.61 2.61 0 002.61 2.61zM287.53 205.72a2.61 2.61 0 10-2.61-2.61 2.61 2.61 0 002.61 2.61zM298.09 205.72a2.61 2.61 0 10-2.61-2.61 2.61 2.61 0 002.61 2.61zM308.64 205.72a2.61 2.61 0 10-2.61-2.61 2.61 2.61 0 002.61 2.61zM319.19 205.72a2.61 2.61 0 10-2.61-2.61 2.61 2.61 0 002.61 2.61zM329.74 205.72a2.61 2.61 0 10-2.61-2.61 2.61 2.61 0 002.61 2.61zM340.3 205.72a2.61 2.61 0 10-2.62-2.61 2.61 2.61 0 002.62 2.61zM350.85 205.72a2.61 2.61 0 10-2.61-2.61 2.61 2.61 0 002.61 2.61zM361.4 205.72a2.61 2.61 0 10-2.61-2.61 2.61 2.61 0 002.61 2.61zM372 205.72a2.61 2.61 0 10-2.62-2.61 2.61 2.61 0 002.62 2.61zM382.51 205.72a2.61 2.61 0 10-2.61-2.61 2.61 2.61 0 002.61 2.61zM393.06 205.72a2.61 2.61 0 10-2.61-2.61 2.61 2.61 0 002.61 2.61zM403.61 205.72a2.61 2.61 0 10-2.61-2.61 2.61 2.61 0 002.61 2.61zM414.16 205.72a2.61 2.61 0 10-2.61-2.61 2.61 2.61 0 002.61 2.61zM424.72 205.72a2.61 2.61 0 10-2.61-2.61 2.61 2.61 0 002.61 2.61zM435.27 205.72a2.61 2.61 0 10-2.61-2.61 2.61 2.61 0 002.61 2.61zM445.82 205.72a2.61 2.61 0 10-2.61-2.61 2.61 2.61 0 002.61 2.61zM456.38 205.72a2.61 2.61 0 10-2.62-2.61 2.61 2.61 0 002.62 2.61zM466.93 205.72a2.61 2.61 0 10-2.61-2.61 2.61 2.61 0 002.61 2.61zM477.48 205.72a2.61 2.61 0 10-2.61-2.61 2.61 2.61 0 002.61 2.61zM488 205.72a2.61 2.61 0 10-2.61-2.61 2.61 2.61 0 002.61 2.61zM498.59 205.72a2.61 2.61 0 10-2.61-2.61 2.61 2.61 0 002.61 2.61zM509.14 205.72a2.61 2.61 0 10-2.61-2.61 2.61 2.61 0 002.61 2.61zM519.69 205.72a2.61 2.61 0 10-2.61-2.61 2.61 2.61 0 002.61 2.61zM530.24 205.72a2.61 2.61 0 10-2.61-2.61 2.61 2.61 0 002.61 2.61zM540.8 205.72a2.61 2.61 0 10-2.61-2.61 2.61 2.61 0 002.61 2.61zM551.35 205.72a2.61 2.61 0 10-2.61-2.61 2.61 2.61 0 002.61 2.61zM561.9 205.72a2.61 2.61 0 10-2.61-2.61 2.61 2.61 0 002.61 2.61zM572.46 205.72a2.61 2.61 0 10-2.62-2.61 2.61 2.61 0 002.62 2.61zM583 205.72a2.61 2.61 0 10-2.61-2.61 2.61 2.61 0 002.61 2.61zM593.56 205.72a2.61 2.61 0 10-2.61-2.61 2.61 2.61 0 002.61 2.61zM76.48 216.28a2.62 2.62 0 10-2.61-2.62 2.61 2.61 0 002.61 2.62zM87 216.28a2.62 2.62 0 10-2.61-2.62 2.61 2.61 0 002.61 2.62zM97.59 216.28a2.62 2.62 0 10-2.59-2.62 2.61 2.61 0 002.59 2.62zM108.14 216.28a2.62 2.62 0 10-2.61-2.62 2.61 2.61 0 002.61 2.62zM118.69 216.28a2.62 2.62 0 10-2.61-2.62 2.61 2.61 0 002.61 2.62zM245.32 216.28a2.62 2.62 0 10-2.61-2.62 2.61 2.61 0 002.61 2.62zM255.88 216.28a2.62 2.62 0 10-2.62-2.62 2.61 2.61 0 002.62 2.62zM266.43 216.28a2.62 2.62 0 10-2.61-2.62 2.61 2.61 0 002.61 2.62zM277 216.28a2.62 2.62 0 10-2.61-2.62 2.61 2.61 0 002.61 2.62zM287.53 216.28a2.62 2.62 0 10-2.61-2.62 2.62 2.62 0 002.61 2.62zM298.09 216.28a2.62 2.62 0 10-2.61-2.62 2.61 2.61 0 002.61 2.62zM308.64 216.28a2.62 2.62 0 10-2.61-2.62 2.61 2.61 0 002.61 2.62zM319.19 216.28a2.62 2.62 0 10-2.61-2.62 2.61 2.61 0 002.61 2.62zM329.74 216.28a2.62 2.62 0 10-2.61-2.62 2.62 2.62 0 002.61 2.62zM340.3 216.28a2.62 2.62 0 10-2.62-2.62 2.61 2.61 0 002.62 2.62zM350.85 216.28a2.62 2.62 0 10-2.61-2.62 2.61 2.61 0 002.61 2.62zM361.4 216.28a2.62 2.62 0 10-2.61-2.62 2.61 2.61 0 002.61 2.62zM372 216.28a2.62 2.62 0 10-2.62-2.62 2.61 2.61 0 002.62 2.62zM382.51 216.28a2.62 2.62 0 10-2.61-2.62 2.61 2.61 0 002.61 2.62zM393.06 216.28a2.62 2.62 0 10-2.61-2.62 2.61 2.61 0 002.61 2.62zM403.61 216.28a2.62 2.62 0 10-2.61-2.62 2.62 2.62 0 002.61 2.62zM414.16 216.28a2.62 2.62 0 10-2.61-2.62 2.62 2.62 0 002.61 2.62zM424.72 216.28a2.62 2.62 0 10-2.61-2.62 2.61 2.61 0 002.61 2.62zM435.27 216.28a2.62 2.62 0 10-2.61-2.62 2.61 2.61 0 002.61 2.62zM445.82 216.28a2.62 2.62 0 10-2.61-2.62 2.61 2.61 0 002.61 2.62zM456.38 216.28a2.62 2.62 0 10-2.62-2.62 2.61 2.61 0 002.62 2.62zM466.93 216.28a2.62 2.62 0 10-2.61-2.62 2.61 2.61 0 002.61 2.62zM477.48 216.28a2.62 2.62 0 10-2.61-2.62 2.61 2.61 0 002.61 2.62zM488 216.28a2.62 2.62 0 10-2.61-2.62 2.62 2.62 0 002.61 2.62zM498.59 216.28a2.62 2.62 0 10-2.61-2.62 2.61 2.61 0 002.61 2.62zM509.14 216.28a2.62 2.62 0 10-2.61-2.62 2.61 2.61 0 002.61 2.62zM519.69 216.28a2.62 2.62 0 10-2.61-2.62 2.61 2.61 0 002.61 2.62zM530.24 216.28a2.62 2.62 0 10-2.61-2.62 2.62 2.62 0 002.61 2.62zM540.8 216.28a2.62 2.62 0 10-2.61-2.62 2.61 2.61 0 002.61 2.62zM551.35 216.28a2.62 2.62 0 10-2.61-2.62 2.61 2.61 0 002.61 2.62zM561.9 216.28a2.62 2.62 0 10-2.61-2.62 2.61 2.61 0 002.61 2.62zM572.46 216.28a2.62 2.62 0 10-2.62-2.62 2.61 2.61 0 002.62 2.62zM245.32 226.83a2.61 2.61 0 10-2.61-2.61 2.61 2.61 0 002.61 2.61zM255.88 226.83a2.61 2.61 0 10-2.62-2.61 2.61 2.61 0 002.62 2.61zM266.43 226.83a2.61 2.61 0 10-2.61-2.61 2.61 2.61 0 002.61 2.61zM277 226.83a2.61 2.61 0 10-2.61-2.61 2.61 2.61 0 002.61 2.61zM287.53 226.83a2.61 2.61 0 10-2.61-2.61 2.61 2.61 0 002.61 2.61zM298.09 226.83a2.61 2.61 0 10-2.61-2.61 2.61 2.61 0 002.61 2.61zM308.64 226.83a2.61 2.61 0 10-2.61-2.61 2.61 2.61 0 002.61 2.61zM319.19 226.83a2.61 2.61 0 10-2.61-2.61 2.61 2.61 0 002.61 2.61zM329.74 226.83a2.61 2.61 0 10-2.61-2.61 2.61 2.61 0 002.61 2.61zM340.3 226.83a2.61 2.61 0 10-2.62-2.61 2.61 2.61 0 002.62 2.61zM350.85 226.83a2.61 2.61 0 10-2.61-2.61 2.61 2.61 0 002.61 2.61zM361.4 226.83a2.61 2.61 0 10-2.61-2.61 2.61 2.61 0 002.61 2.61zM372 226.83a2.61 2.61 0 10-2.62-2.61 2.61 2.61 0 002.62 2.61zM382.51 226.83a2.61 2.61 0 10-2.61-2.61 2.61 2.61 0 002.61 2.61zM393.06 226.83a2.61 2.61 0 10-2.61-2.61 2.61 2.61 0 002.61 2.61zM403.61 226.83a2.61 2.61 0 10-2.61-2.61 2.61 2.61 0 002.61 2.61zM414.16 226.83a2.61 2.61 0 10-2.61-2.61 2.61 2.61 0 002.61 2.61zM424.72 226.83a2.61 2.61 0 10-2.61-2.61 2.61 2.61 0 002.61 2.61zM435.27 226.83a2.61 2.61 0 10-2.61-2.61 2.61 2.61 0 002.61 2.61zM445.82 226.83a2.61 2.61 0 10-2.61-2.61 2.61 2.61 0 002.61 2.61zM456.38 226.83a2.61 2.61 0 10-2.62-2.61 2.61 2.61 0 002.62 2.61zM466.93 226.83a2.61 2.61 0 10-2.61-2.61 2.61 2.61 0 002.61 2.61zM477.48 226.83a2.61 2.61 0 10-2.61-2.61 2.61 2.61 0 002.61 2.61zM488 226.83a2.61 2.61 0 10-2.61-2.61 2.61 2.61 0 002.61 2.61zM498.59 226.83a2.61 2.61 0 10-2.61-2.61 2.61 2.61 0 002.61 2.61zM509.14 226.83a2.61 2.61 0 10-2.61-2.61 2.61 2.61 0 002.61 2.61zM519.69 226.83a2.61 2.61 0 10-2.61-2.61 2.61 2.61 0 002.61 2.61zM530.24 226.83a2.61 2.61 0 10-2.61-2.61 2.61 2.61 0 002.61 2.61zM540.8 226.83a2.61 2.61 0 10-2.61-2.61 2.61 2.61 0 002.61 2.61zM551.35 226.83a2.61 2.61 0 10-2.61-2.61 2.61 2.61 0 002.61 2.61zM561.9 226.83a2.61 2.61 0 10-2.61-2.61 2.61 2.61 0 002.61 2.61zM255.88 237.38a2.61 2.61 0 10-2.62-2.61 2.61 2.61 0 002.62 2.61zM266.43 237.38a2.61 2.61 0 10-2.61-2.61 2.61 2.61 0 002.61 2.61zM277 237.38a2.61 2.61 0 10-2.61-2.61 2.61 2.61 0 002.61 2.61zM287.53 237.38a2.61 2.61 0 10-2.61-2.61 2.61 2.61 0 002.61 2.61zM298.09 237.38a2.61 2.61 0 10-2.61-2.61 2.61 2.61 0 002.61 2.61zM308.64 237.38a2.61 2.61 0 10-2.61-2.61 2.61 2.61 0 002.61 2.61zM319.19 237.38a2.61 2.61 0 10-2.61-2.61 2.61 2.61 0 002.61 2.61zM329.74 237.38a2.61 2.61 0 10-2.61-2.61 2.61 2.61 0 002.61 2.61zM340.3 237.38a2.61 2.61 0 10-2.62-2.61 2.61 2.61 0 002.62 2.61zM350.85 237.38a2.61 2.61 0 10-2.61-2.61 2.61 2.61 0 002.61 2.61zM361.4 237.38a2.61 2.61 0 10-2.61-2.61 2.61 2.61 0 002.61 2.61zM372 237.38a2.61 2.61 0 10-2.62-2.61 2.61 2.61 0 002.62 2.61zM382.51 237.38a2.61 2.61 0 10-2.61-2.61 2.61 2.61 0 002.61 2.61zM393.06 237.38a2.61 2.61 0 10-2.61-2.61 2.61 2.61 0 002.61 2.61zM403.61 237.38a2.61 2.61 0 10-2.61-2.61 2.61 2.61 0 002.61 2.61zM414.16 237.38a2.61 2.61 0 10-2.61-2.61 2.61 2.61 0 002.61 2.61zM424.72 237.38a2.61 2.61 0 10-2.61-2.61 2.61 2.61 0 002.61 2.61zM435.27 237.38a2.61 2.61 0 10-2.61-2.61 2.61 2.61 0 002.61 2.61zM445.82 237.38a2.61 2.61 0 10-2.61-2.61 2.61 2.61 0 002.61 2.61zM456.38 237.38a2.61 2.61 0 10-2.62-2.61 2.61 2.61 0 002.62 2.61zM466.93 237.38a2.61 2.61 0 10-2.61-2.61 2.61 2.61 0 002.61 2.61zM477.48 237.38a2.61 2.61 0 10-2.61-2.61 2.61 2.61 0 002.61 2.61zM488 237.38a2.61 2.61 0 10-2.61-2.61 2.61 2.61 0 002.61 2.61zM498.59 237.38a2.61 2.61 0 10-2.61-2.61 2.61 2.61 0 002.61 2.61zM509.14 237.38a2.61 2.61 0 10-2.61-2.61 2.61 2.61 0 002.61 2.61zM519.69 237.38a2.61 2.61 0 10-2.61-2.61 2.61 2.61 0 002.61 2.61zM530.24 237.38a2.61 2.61 0 10-2.61-2.61 2.61 2.61 0 002.61 2.61zM551.35 237.38a2.61 2.61 0 10-2.61-2.61 2.61 2.61 0 002.61 2.61zM266.43 247.94a2.62 2.62 0 10-2.61-2.62 2.61 2.61 0 002.61 2.62zM277 247.94a2.62 2.62 0 10-2.61-2.62 2.61 2.61 0 002.61 2.62zM287.53 247.94a2.62 2.62 0 10-2.61-2.62 2.62 2.62 0 002.61 2.62zM298.09 247.94a2.62 2.62 0 10-2.61-2.62 2.61 2.61 0 002.61 2.62zM308.64 247.94a2.62 2.62 0 10-2.61-2.62 2.61 2.61 0 002.61 2.62zM319.19 247.94a2.62 2.62 0 10-2.61-2.62 2.61 2.61 0 002.61 2.62zM329.74 247.94a2.62 2.62 0 10-2.61-2.62 2.62 2.62 0 002.61 2.62zM340.3 247.94a2.62 2.62 0 10-2.62-2.62 2.61 2.61 0 002.62 2.62zM350.85 247.94a2.62 2.62 0 10-2.61-2.62 2.61 2.61 0 002.61 2.62zM361.4 247.94a2.62 2.62 0 10-2.61-2.62 2.61 2.61 0 002.61 2.62zM372 247.94a2.62 2.62 0 10-2.62-2.62 2.61 2.61 0 002.62 2.62zM382.51 247.94a2.62 2.62 0 10-2.61-2.62 2.61 2.61 0 002.61 2.62zM393.06 247.94a2.62 2.62 0 10-2.61-2.62 2.61 2.61 0 002.61 2.62zM403.61 247.94a2.62 2.62 0 10-2.61-2.62 2.62 2.62 0 002.61 2.62zM414.16 247.94a2.62 2.62 0 10-2.61-2.62 2.62 2.62 0 002.61 2.62zM424.72 247.94a2.62 2.62 0 10-2.61-2.62 2.61 2.61 0 002.61 2.62zM435.27 247.94a2.62 2.62 0 10-2.61-2.62 2.61 2.61 0 002.61 2.62zM445.82 247.94a2.62 2.62 0 10-2.61-2.62 2.61 2.61 0 002.61 2.62zM456.38 247.94a2.62 2.62 0 10-2.62-2.62 2.61 2.61 0 002.62 2.62zM466.93 247.94a2.62 2.62 0 10-2.61-2.62 2.61 2.61 0 002.61 2.62zM477.48 247.94a2.62 2.62 0 10-2.61-2.62 2.61 2.61 0 002.61 2.62zM488 247.94a2.62 2.62 0 10-2.61-2.62 2.62 2.62 0 002.61 2.62zM498.59 247.94a2.62 2.62 0 10-2.61-2.62 2.61 2.61 0 002.61 2.62zM509.14 247.94a2.62 2.62 0 10-2.61-2.62 2.61 2.61 0 002.61 2.62zM266.43 258.49a2.62 2.62 0 10-2.61-2.61 2.61 2.61 0 002.61 2.61zM277 258.49a2.62 2.62 0 10-2.61-2.61 2.61 2.61 0 002.61 2.61zM287.53 258.49a2.62 2.62 0 10-2.61-2.61 2.61 2.61 0 002.61 2.61zM298.09 258.49a2.62 2.62 0 10-2.61-2.61 2.61 2.61 0 002.61 2.61zM308.64 258.49a2.62 2.62 0 10-2.61-2.61 2.61 2.61 0 002.61 2.61zM319.19 258.49a2.62 2.62 0 10-2.61-2.61 2.61 2.61 0 002.61 2.61zM329.74 258.49a2.62 2.62 0 10-2.61-2.61 2.61 2.61 0 002.61 2.61zM340.3 258.49a2.62 2.62 0 10-2.62-2.61 2.61 2.61 0 002.62 2.61zM350.85 258.49a2.62 2.62 0 10-2.61-2.61 2.61 2.61 0 002.61 2.61zM361.4 258.49a2.62 2.62 0 10-2.61-2.61 2.61 2.61 0 002.61 2.61zM372 258.49a2.62 2.62 0 10-2.62-2.61 2.61 2.61 0 002.62 2.61zM382.51 258.49a2.62 2.62 0 10-2.61-2.61 2.61 2.61 0 002.61 2.61zM393.06 258.49a2.62 2.62 0 10-2.61-2.61 2.61 2.61 0 002.61 2.61zM403.61 258.49a2.62 2.62 0 10-2.61-2.61 2.61 2.61 0 002.61 2.61zM414.16 258.49a2.62 2.62 0 10-2.61-2.61 2.61 2.61 0 002.61 2.61zM424.72 258.49a2.62 2.62 0 10-2.61-2.61 2.61 2.61 0 002.61 2.61zM435.27 258.49a2.62 2.62 0 10-2.61-2.61 2.61 2.61 0 002.61 2.61zM445.82 258.49a2.62 2.62 0 10-2.61-2.61 2.61 2.61 0 002.61 2.61zM456.38 258.49a2.62 2.62 0 10-2.62-2.61 2.61 2.61 0 002.62 2.61zM466.93 258.49a2.62 2.62 0 10-2.61-2.61 2.61 2.61 0 002.61 2.61zM477.48 258.49a2.62 2.62 0 10-2.61-2.61 2.61 2.61 0 002.61 2.61zM488 258.49a2.62 2.62 0 10-2.61-2.61 2.61 2.61 0 002.61 2.61zM498.59 258.49a2.62 2.62 0 10-2.61-2.61 2.61 2.61 0 002.61 2.61zM245.32 269a2.61 2.61 0 10-2.61-2.61 2.61 2.61 0 002.61 2.61zM255.88 269a2.61 2.61 0 10-2.62-2.61 2.61 2.61 0 002.62 2.61zM266.43 269a2.61 2.61 0 10-2.61-2.61 2.61 2.61 0 002.61 2.61zM277 269a2.61 2.61 0 10-2.61-2.61A2.61 2.61 0 00277 269zM287.53 269a2.61 2.61 0 10-2.61-2.61 2.61 2.61 0 002.61 2.61zM298.09 269a2.61 2.61 0 10-2.61-2.61 2.61 2.61 0 002.61 2.61zM308.64 269a2.61 2.61 0 10-2.61-2.61 2.61 2.61 0 002.61 2.61zM329.74 269a2.61 2.61 0 10-2.61-2.61 2.61 2.61 0 002.61 2.61zM340.3 269a2.61 2.61 0 10-2.62-2.61 2.61 2.61 0 002.62 2.61zM350.85 269a2.61 2.61 0 10-2.61-2.61 2.61 2.61 0 002.61 2.61zM361.4 269a2.61 2.61 0 10-2.61-2.61 2.61 2.61 0 002.61 2.61zM372 269a2.61 2.61 0 10-2.62-2.61A2.61 2.61 0 00372 269zM382.51 269a2.61 2.61 0 10-2.61-2.61 2.61 2.61 0 002.61 2.61zM393.06 269a2.61 2.61 0 10-2.61-2.61 2.61 2.61 0 002.61 2.61zM403.61 269a2.61 2.61 0 10-2.61-2.61 2.61 2.61 0 002.61 2.61zM414.16 269a2.61 2.61 0 10-2.61-2.61 2.61 2.61 0 002.61 2.61zM424.72 269a2.61 2.61 0 10-2.61-2.61 2.61 2.61 0 002.61 2.61z"/><circle cx="435.27" cy="266.43" r="2.61"/><circle cx="445.82" cy="266.43" r="2.61"/><path d="M456.38 269a2.61 2.61 0 10-2.62-2.61 2.61 2.61 0 002.62 2.61z"/><circle cx="466.93" cy="266.43" r="2.61"/><path d="M245.32 279.59a2.61 2.61 0 10-2.61-2.61 2.61 2.61 0 002.61 2.61zM255.88 279.59a2.61 2.61 0 10-2.62-2.61 2.61 2.61 0 002.62 2.61zM266.43 279.59a2.61 2.61 0 10-2.61-2.61 2.61 2.61 0 002.61 2.61zM277 279.59a2.61 2.61 0 10-2.61-2.61 2.61 2.61 0 002.61 2.61zM287.53 279.59a2.61 2.61 0 10-2.61-2.61 2.61 2.61 0 002.61 2.61zM298.09 279.59a2.61 2.61 0 10-2.61-2.61 2.61 2.61 0 002.61 2.61zM308.64 279.59A2.61 2.61 0 10306 277a2.61 2.61 0 002.64 2.59zM350.85 279.59a2.61 2.61 0 10-2.61-2.61 2.61 2.61 0 002.61 2.61zM361.4 279.59a2.61 2.61 0 10-2.61-2.61 2.61 2.61 0 002.61 2.61zM372 279.59a2.61 2.61 0 10-2.62-2.61 2.61 2.61 0 002.62 2.61zM382.51 279.59a2.61 2.61 0 10-2.61-2.59 2.61 2.61 0 002.61 2.59zM393.06 279.59a2.61 2.61 0 10-2.61-2.61 2.61 2.61 0 002.61 2.61zM403.61 279.59A2.61 2.61 0 10401 277a2.61 2.61 0 002.61 2.59zM414.16 279.59a2.61 2.61 0 10-2.61-2.61 2.61 2.61 0 002.61 2.61zM424.72 279.59a2.61 2.61 0 10-2.61-2.61 2.61 2.61 0 002.61 2.61zM435.27 279.59a2.61 2.61 0 10-2.61-2.61 2.61 2.61 0 002.61 2.61zM445.82 279.59a2.61 2.61 0 10-2.61-2.61 2.61 2.61 0 002.61 2.61zM456.38 279.59a2.61 2.61 0 10-2.62-2.61 2.61 2.61 0 002.62 2.61zM234.77 290.15a2.62 2.62 0 10-2.61-2.62 2.61 2.61 0 002.61 2.62zM245.32 290.15a2.62 2.62 0 10-2.61-2.62 2.61 2.61 0 002.61 2.62zM255.88 290.15a2.62 2.62 0 10-2.62-2.62 2.61 2.61 0 002.62 2.62zM266.43 290.15a2.62 2.62 0 10-2.61-2.62 2.61 2.61 0 002.61 2.62zM277 290.15a2.62 2.62 0 10-2.61-2.62 2.61 2.61 0 002.61 2.62zM287.53 290.15a2.62 2.62 0 10-2.61-2.62 2.62 2.62 0 002.61 2.62zM298.09 290.15a2.62 2.62 0 10-2.61-2.62 2.61 2.61 0 002.61 2.62zM403.61 290.15a2.62 2.62 0 10-2.61-2.62 2.62 2.62 0 002.61 2.62zM414.16 290.15a2.62 2.62 0 10-2.61-2.62 2.62 2.62 0 002.61 2.62zM424.72 290.15a2.62 2.62 0 10-2.61-2.62 2.61 2.61 0 002.61 2.62z"/><circle cx="435.27" cy="287.53" r="2.61"/><circle cx="445.82" cy="287.53" r="2.61"/><path d="M456.38 290.15a2.62 2.62 0 10-2.62-2.62 2.61 2.61 0 002.62 2.62zM224.22 300.7a2.61 2.61 0 10-2.61-2.61 2.61 2.61 0 002.61 2.61zM234.77 300.7a2.61 2.61 0 10-2.61-2.61 2.61 2.61 0 002.61 2.61zM245.32 300.7a2.61 2.61 0 10-2.61-2.61 2.61 2.61 0 002.61 2.61zM255.88 300.7a2.61 2.61 0 10-2.62-2.61 2.61 2.61 0 002.62 2.61zM266.43 300.7a2.61 2.61 0 10-2.61-2.61 2.61 2.61 0 002.61 2.61zM277 300.7a2.61 2.61 0 10-2.61-2.61 2.61 2.61 0 002.61 2.61zM287.53 300.7a2.61 2.61 0 10-2.61-2.61 2.61 2.61 0 002.61 2.61zM382.51 300.7a2.61 2.61 0 10-2.61-2.61 2.61 2.61 0 002.61 2.61zM393.06 300.7a2.61 2.61 0 10-2.61-2.61 2.61 2.61 0 002.61 2.61zM403.61 300.7a2.61 2.61 0 10-2.61-2.61 2.61 2.61 0 002.61 2.61zM414.16 300.7a2.61 2.61 0 10-2.61-2.61 2.61 2.61 0 002.61 2.61zM424.72 300.7a2.61 2.61 0 10-2.61-2.61 2.61 2.61 0 002.61 2.61z"/><circle cx="435.27" cy="298.09" r="2.61"/><circle cx="445.82" cy="298.09" r="2.61"/><path d="M456.38 300.7a2.61 2.61 0 10-2.62-2.61 2.61 2.61 0 002.62 2.61z"/><circle cx="466.93" cy="298.09" r="2.61"/><path d="M488 300.7a2.61 2.61 0 10-2.61-2.61 2.61 2.61 0 002.61 2.61zM498.59 300.7a2.61 2.61 0 10-2.61-2.61 2.61 2.61 0 002.61 2.61zM509.14 300.7a2.61 2.61 0 10-2.61-2.61 2.61 2.61 0 002.61 2.61zM224.22 311.25a2.61 2.61 0 10-2.61-2.61 2.61 2.61 0 002.61 2.61zM234.77 311.25a2.61 2.61 0 10-2.61-2.61 2.61 2.61 0 002.61 2.61zM245.32 311.25a2.61 2.61 0 10-2.61-2.61 2.61 2.61 0 002.61 2.61zM255.88 311.25a2.61 2.61 0 10-2.62-2.61 2.61 2.61 0 002.62 2.61zM266.43 311.25a2.61 2.61 0 10-2.61-2.61 2.61 2.61 0 002.61 2.61zM277 311.25a2.61 2.61 0 10-2.61-2.61 2.61 2.61 0 002.61 2.61zM372 311.25a2.61 2.61 0 10-2.62-2.61 2.61 2.61 0 002.62 2.61zM382.51 311.25a2.61 2.61 0 10-2.61-2.61 2.61 2.61 0 002.61 2.61zM393.06 311.25a2.61 2.61 0 10-2.61-2.61 2.61 2.61 0 002.61 2.61zM403.61 311.25a2.61 2.61 0 10-2.61-2.61 2.61 2.61 0 002.61 2.61zM414.16 311.25a2.61 2.61 0 10-2.61-2.61 2.61 2.61 0 002.61 2.61zM424.72 311.25a2.61 2.61 0 10-2.61-2.61 2.61 2.61 0 002.61 2.61zM435.27 311.25a2.61 2.61 0 10-2.61-2.61 2.61 2.61 0 002.61 2.61zM445.82 311.25a2.61 2.61 0 10-2.61-2.61 2.61 2.61 0 002.61 2.61zM456.38 311.25a2.61 2.61 0 10-2.62-2.61 2.61 2.61 0 002.62 2.61zM466.93 311.25a2.61 2.61 0 10-2.61-2.61 2.61 2.61 0 002.61 2.61zM477.48 311.25a2.61 2.61 0 10-2.61-2.61 2.61 2.61 0 002.61 2.61zM488 311.25a2.61 2.61 0 10-2.61-2.61 2.61 2.61 0 002.61 2.61zM498.59 311.25a2.61 2.61 0 10-2.61-2.61 2.61 2.61 0 002.61 2.61zM509.14 311.25a2.61 2.61 0 10-2.61-2.61 2.61 2.61 0 002.61 2.61zM403.61 321.8a2.61 2.61 0 10-2.61-2.61 2.61 2.61 0 002.61 2.61zM414.16 321.8a2.61 2.61 0 10-2.61-2.61 2.61 2.61 0 002.61 2.61zM424.72 321.8a2.61 2.61 0 10-2.61-2.61 2.61 2.61 0 002.61 2.61zM435.27 321.8a2.61 2.61 0 10-2.61-2.61 2.61 2.61 0 002.61 2.61zM445.82 321.8a2.61 2.61 0 10-2.61-2.61 2.61 2.61 0 002.61 2.61zM456.38 321.8a2.61 2.61 0 10-2.62-2.61 2.61 2.61 0 002.62 2.61zM466.93 321.8a2.61 2.61 0 10-2.61-2.61 2.61 2.61 0 002.61 2.61zM477.48 321.8a2.61 2.61 0 10-2.61-2.61 2.61 2.61 0 002.61 2.61zM488 321.8a2.61 2.61 0 10-2.61-2.61 2.61 2.61 0 002.61 2.61zM498.59 321.8a2.61 2.61 0 10-2.61-2.61 2.61 2.61 0 002.61 2.61zM509.14 321.8a2.61 2.61 0 10-2.61-2.61 2.61 2.61 0 002.61 2.61zM403.61 332.36a2.62 2.62 0 10-2.61-2.62 2.62 2.62 0 002.61 2.62zM414.16 332.36a2.62 2.62 0 10-2.61-2.62 2.62 2.62 0 002.61 2.62zM424.72 332.36a2.62 2.62 0 10-2.61-2.62 2.61 2.61 0 002.61 2.62zM435.27 332.36a2.62 2.62 0 10-2.61-2.62 2.61 2.61 0 002.61 2.62zM445.82 332.36a2.62 2.62 0 10-2.61-2.62 2.61 2.61 0 002.61 2.62zM456.38 332.36a2.62 2.62 0 10-2.62-2.62 2.61 2.61 0 002.62 2.62zM466.93 332.36a2.62 2.62 0 10-2.61-2.62 2.61 2.61 0 002.61 2.62zM403.61 342.91a2.61 2.61 0 10-2.61-2.61 2.61 2.61 0 002.61 2.61zM414.16 342.91a2.61 2.61 0 10-2.61-2.61 2.61 2.61 0 002.61 2.61zM424.72 342.91a2.61 2.61 0 10-2.61-2.61 2.61 2.61 0 002.61 2.61zM435.27 342.91a2.61 2.61 0 10-2.61-2.61 2.61 2.61 0 002.61 2.61zM445.82 342.91a2.61 2.61 0 10-2.61-2.61 2.61 2.61 0 002.61 2.61z"/></g></svg></svg>